<svg width="97" height="39" viewBox="0 0 97 39" fill="none" xmlns="http://www.w3.org/2000/svg">
<path d="M0.617603 7.43213V0.48211H2.74596C3.35406 0.48211 3.89723 0.620538 4.37548 0.897393C4.85689 1.17107 5.23221 1.56248 5.50142 2.07164C5.77063 2.57762 5.90524 3.1536 5.90524 3.7996V4.11942C5.90524 4.76541 5.77221 5.33981 5.50617 5.8426C5.24329 6.3454 4.87115 6.73522 4.38973 7.01208C3.90832 7.28893 3.36514 7.42895 2.76021 7.43213H0.617603ZM2.04284 1.64204V6.28175H2.73171C3.28913 6.28175 3.71512 6.09877 4.00967 5.73281C4.30422 5.36686 4.45466 4.84338 4.46099 4.16238V3.79483C4.46099 3.08837 4.3153 2.55375 4.02392 2.19098C3.73254 1.82502 3.30655 1.64204 2.74596 1.64204H2.04284Z" fill="url(#paint0_linear_941_64)"/>
<path d="M9.83414 7.43213C9.7708 7.30802 9.72487 7.15369 9.69637 6.96912C9.36381 7.34144 8.93149 7.5276 8.3994 7.5276C7.89582 7.5276 7.47775 7.38122 7.14519 7.08845C6.8158 6.79568 6.65111 6.42654 6.65111 5.98103C6.65111 5.43368 6.85223 5.01363 7.25446 4.72086C7.65986 4.42809 8.24421 4.28012 9.0075 4.27694H9.63936V3.98099C9.63936 3.74232 9.5776 3.55139 9.45408 3.40818C9.33372 3.26498 9.14211 3.19338 8.87923 3.19338C8.64803 3.19338 8.46591 3.24907 8.33289 3.36045C8.20304 3.47183 8.13811 3.62458 8.13811 3.81869H6.76513C6.76513 3.51956 6.85698 3.24271 7.04067 2.98813C7.22437 2.73355 7.48408 2.53466 7.8198 2.39146C8.15553 2.24507 8.53242 2.17188 8.95049 2.17188C9.58393 2.17188 10.0859 2.33259 10.4565 2.65399C10.8302 2.97222 11.0171 3.42091 11.0171 4.00008V6.23879C11.0203 6.72886 11.0883 7.09959 11.2214 7.35099V7.43213H9.83414ZM8.6987 6.47269C8.9014 6.47269 9.08827 6.42813 9.25929 6.33903C9.43032 6.24675 9.55701 6.12423 9.63936 5.97148V5.08364H9.12627C8.43899 5.08364 8.07318 5.3223 8.02884 5.79964L8.02409 5.88079C8.02409 6.05263 8.08427 6.19424 8.20462 6.30562C8.32497 6.417 8.48967 6.47269 8.6987 6.47269Z" fill="url(#paint1_linear_941_64)"/>
<path d="M13.7155 0.997634V2.26735H14.5944V3.2793H13.7155V5.85692C13.7155 6.04786 13.752 6.18469 13.8248 6.26743C13.8977 6.35017 14.037 6.39154 14.2429 6.39154C14.3949 6.39154 14.5295 6.3804 14.6467 6.35812V7.40349C14.3775 7.48623 14.1004 7.5276 13.8153 7.5276C12.8525 7.5276 12.3616 7.03913 12.3426 6.06218V3.2793H11.5919V2.26735H12.3426V0.997634H13.7155Z" fill="url(#paint2_linear_941_64)"/>
<path d="M18.3381 7.43213C18.2747 7.30802 18.2288 7.15369 18.2003 6.96912C17.8677 7.34144 17.4354 7.5276 16.9033 7.5276C16.3997 7.5276 15.9817 7.38122 15.6491 7.08845C15.3197 6.79568 15.155 6.42654 15.155 5.98103C15.155 5.43368 15.3561 5.01363 15.7584 4.72086C16.1638 4.42809 16.7481 4.28012 17.5114 4.27694H18.1433V3.98099C18.1433 3.74232 18.0815 3.55139 17.958 3.40818C17.8376 3.26498 17.646 3.19338 17.3832 3.19338C17.1519 3.19338 16.9698 3.24907 16.8368 3.36045C16.707 3.47183 16.642 3.62458 16.642 3.81869H15.269C15.269 3.51956 15.3609 3.24271 15.5446 2.98813C15.7283 2.73355 15.988 2.53466 16.3237 2.39146C16.6594 2.24507 17.0363 2.17188 17.4544 2.17188C18.0879 2.17188 18.5899 2.33259 18.9604 2.65399C19.3341 2.97222 19.521 3.42091 19.521 4.00008V6.23879C19.5242 6.72886 19.5923 7.09959 19.7253 7.35099V7.43213H18.3381ZM17.2026 6.47269C17.4053 6.47269 17.5922 6.42813 17.7632 6.33903C17.9342 6.24675 18.0609 6.12423 18.1433 5.97148V5.08364H17.6302C16.9429 5.08364 16.5771 5.3223 16.5328 5.79964L16.528 5.88079C16.528 6.05263 16.5882 6.19424 16.7085 6.30562C16.8289 6.417 16.9936 6.47269 17.2026 6.47269Z" fill="url(#paint3_linear_941_64)"/>
<path d="M25.7826 6.0049C25.7826 5.83624 25.6986 5.70417 25.5308 5.60871C25.3661 5.51006 25.1 5.42254 24.7326 5.34617C23.5101 5.08841 22.8988 4.56652 22.8988 3.78051C22.8988 3.32226 23.0873 2.94039 23.4642 2.6349C23.8442 2.32622 24.3399 2.17188 24.9512 2.17188C25.6036 2.17188 26.1246 2.32622 26.5142 2.6349C26.9069 2.94358 27.1033 3.34454 27.1033 3.83779H25.7303C25.7303 3.64049 25.6669 3.47819 25.5403 3.3509C25.4136 3.22043 25.2156 3.1552 24.9464 3.1552C24.7152 3.1552 24.5363 3.2077 24.4096 3.31272C24.2829 3.41773 24.2195 3.55139 24.2195 3.71368C24.2195 3.86643 24.2908 3.99053 24.4333 4.086C24.579 4.17829 24.8229 4.25943 25.1649 4.32944C25.507 4.39627 25.7952 4.47264 26.0296 4.55857C26.7549 4.82587 27.1175 5.28889 27.1175 5.94762C27.1175 6.41859 26.9164 6.80046 26.5142 7.09322C26.1119 7.38281 25.5925 7.5276 24.9559 7.5276C24.5252 7.5276 24.1419 7.45123 23.8062 7.29848C23.4737 7.14255 23.2124 6.93093 23.0223 6.66362C22.8323 6.39313 22.7373 6.10195 22.7373 5.79009H24.039C24.0517 6.03513 24.1419 6.22288 24.3098 6.35335C24.4777 6.48382 24.7025 6.54906 24.9844 6.54906C25.2473 6.54906 25.4452 6.49973 25.5783 6.40109C25.7145 6.29925 25.7826 6.16719 25.7826 6.0049Z" fill="url(#paint4_linear_941_64)"/>
<path d="M27.7921 4.80201C27.7921 4.28967 27.8903 3.83301 28.0867 3.43205C28.2831 3.03109 28.5649 2.72082 28.9323 2.50124C29.3029 2.28167 29.732 2.17188 30.2198 2.17188C30.9134 2.17188 31.4788 2.38509 31.9158 2.81151C32.3561 3.23793 32.6015 3.8171 32.6522 4.54902L32.6617 4.90225C32.6617 5.69463 32.4416 6.33108 32.0013 6.81159C31.5611 7.28893 30.9704 7.5276 30.2293 7.5276C29.4882 7.5276 28.8959 7.28893 28.4525 6.81159C28.0123 6.33426 27.7921 5.68508 27.7921 4.86406V4.80201ZM29.1651 4.90225C29.1651 5.39231 29.257 5.76782 29.4407 6.02876C29.6244 6.28652 29.8872 6.41541 30.2293 6.41541C30.5618 6.41541 30.8216 6.28812 31.0084 6.03354C31.1953 5.77577 31.2887 5.36526 31.2887 4.80201C31.2887 4.32149 31.1953 3.94917 31.0084 3.68504C30.8216 3.42091 30.5587 3.28885 30.2198 3.28885C29.8841 3.28885 29.6244 3.42091 29.4407 3.68504C29.257 3.94598 29.1651 4.35172 29.1651 4.90225Z" fill="url(#paint5_linear_941_64)"/>
<path d="M36.5859 6.90706C36.247 7.32075 35.7782 7.5276 35.1796 7.5276C34.6285 7.5276 34.2073 7.36849 33.9159 7.05026C33.6277 6.73204 33.4804 6.26584 33.4741 5.65167V2.26735H34.8471V5.60393C34.8471 6.14173 35.0909 6.41063 35.5787 6.41063C36.0443 6.41063 36.3642 6.24834 36.5383 5.92375V2.26735H37.9161V7.43213H36.6239L36.5859 6.90706Z" fill="url(#paint6_linear_941_64)"/>
<path d="M41.8402 3.56093C41.6534 3.53547 41.4887 3.52274 41.3461 3.52274C40.8267 3.52274 40.4863 3.69936 40.3247 4.05259V7.43213H38.9517V2.26735H40.2487L40.2867 2.88311C40.5623 2.40896 40.9439 2.17188 41.4317 2.17188C41.5837 2.17188 41.7262 2.19257 41.8592 2.23394L41.8402 3.56093Z" fill="url(#paint7_linear_941_64)"/>
<path d="M44.5482 6.41541C44.8016 6.41541 45.0074 6.3454 45.1658 6.20538C45.3241 6.06536 45.4065 5.8792 45.4128 5.64689H46.7003C46.6971 5.99694 46.6021 6.31835 46.4152 6.61111C46.2284 6.9007 45.9718 7.12664 45.6456 7.28893C45.3226 7.44804 44.9647 7.5276 44.5719 7.5276C43.8371 7.5276 43.2575 7.2937 42.8331 6.82591C42.4087 6.35494 42.1965 5.70576 42.1965 4.87838V4.78769C42.1965 3.99213 42.4072 3.35727 42.8284 2.88311C43.2496 2.40896 43.8276 2.17188 44.5624 2.17188C45.2054 2.17188 45.72 2.35645 46.1064 2.72559C46.496 3.09155 46.694 3.58003 46.7003 4.19102H45.4128C45.4065 3.92371 45.3241 3.70732 45.1658 3.54184C45.0074 3.37318 44.7984 3.28885 44.5387 3.28885C44.2188 3.28885 43.9765 3.40659 43.8118 3.64208C43.6503 3.87438 43.5695 4.25307 43.5695 4.77814V4.92134C43.5695 5.45278 43.6503 5.83465 43.8118 6.06695C43.9733 6.29925 44.2188 6.41541 44.5482 6.41541Z" fill="url(#paint8_linear_941_64)"/>
<path d="M49.8501 7.5276C49.0963 7.5276 48.4818 7.2953 48.0068 6.83069C47.5348 6.36608 47.2989 5.74713 47.2989 4.97385V4.84019C47.2989 4.32149 47.3987 3.85847 47.5982 3.45114C47.7977 3.04063 48.0796 2.72559 48.4438 2.50602C48.8112 2.28326 49.2293 2.17188 49.698 2.17188C50.4012 2.17188 50.9538 2.39464 51.3561 2.84015C51.7615 3.28567 51.9642 3.91734 51.9642 4.73518V5.29844H48.6909C48.7352 5.63576 48.8682 5.90625 49.0899 6.10991C49.3148 6.31357 49.5983 6.41541 49.9403 6.41541C50.4693 6.41541 50.8826 6.22288 51.1803 5.83783L51.8549 6.59679C51.649 6.88956 51.3703 7.11868 51.0188 7.28416C50.6672 7.44645 50.2776 7.5276 49.8501 7.5276ZM49.6933 3.28885C49.4209 3.28885 49.1992 3.38113 49.0282 3.56571C48.8603 3.75028 48.7526 4.0144 48.7051 4.35808H50.6149V4.2483C50.6086 3.9428 50.5263 3.70732 50.3679 3.54184C50.2095 3.37318 49.9847 3.28885 49.6933 3.28885Z" fill="url(#paint9_linear_941_64)"/>
<path d="M52.5343 4.81155C52.5343 4.00645 52.7132 3.36522 53.0711 2.88789C53.4322 2.41055 53.9247 2.17188 54.5486 2.17188C55.049 2.17188 55.4623 2.35963 55.7886 2.73514V0.100241H57.1663V7.43213H55.9263L55.8598 6.8832C55.5178 7.3128 55.0775 7.5276 54.5391 7.5276C53.9342 7.5276 53.448 7.28893 53.0806 6.81159C52.7164 6.33108 52.5343 5.6644 52.5343 4.81155ZM53.9072 4.91179C53.9072 5.3955 53.9912 5.76623 54.159 6.02399C54.3269 6.28175 54.5708 6.41063 54.8907 6.41063C55.3151 6.41063 55.6144 6.23083 55.7886 5.87124V3.83301C55.6175 3.47342 55.3214 3.29362 54.9002 3.29362C54.2382 3.29362 53.9072 3.83301 53.9072 4.91179Z" fill="url(#paint10_linear_941_64)"/>
<path d="M61.0287 7.43213V3.2793H60.2638V2.26735H61.0287V1.8282C61.0287 1.24903 61.1934 0.800335 61.5228 0.48211C61.8553 0.160703 62.3193 0 62.9147 0C63.1048 0 63.3376 0.0318224 63.6131 0.0954673L63.5989 1.1647C63.4848 1.13606 63.3455 1.12174 63.1808 1.12174C62.6645 1.12174 62.4064 1.36518 62.4064 1.85207V2.26735H63.4278V3.2793H62.4064V7.43213H61.0287Z" fill="url(#paint11_linear_941_64)"/>
<path d="M67.0289 3.56093C66.8421 3.53547 66.6774 3.52274 66.5349 3.52274C66.0154 3.52274 65.675 3.69936 65.5134 4.05259V7.43213H64.1404V2.26735H65.4374L65.4754 2.88311C65.751 2.40896 66.1326 2.17188 66.6204 2.17188C66.7724 2.17188 66.9149 2.19257 67.0479 2.23394L67.0289 3.56093Z" fill="url(#paint12_linear_941_64)"/>
<path d="M67.3092 4.80201C67.3092 4.28967 67.4074 3.83301 67.6038 3.43205C67.8001 3.03109 68.082 2.72082 68.4494 2.50124C68.82 2.28167 69.2491 2.17188 69.7369 2.17188C70.4305 2.17188 70.9958 2.38509 71.4329 2.81151C71.8732 3.23793 72.1186 3.8171 72.1693 4.54902L72.1788 4.90225C72.1788 5.69463 71.9587 6.33108 71.5184 6.81159C71.0782 7.28893 70.4875 7.5276 69.7464 7.5276C69.0053 7.5276 68.413 7.28893 67.9696 6.81159C67.5294 6.33426 67.3092 5.68508 67.3092 4.86406V4.80201ZM68.6822 4.90225C68.6822 5.39231 68.7741 5.76782 68.9578 6.02876C69.1414 6.28652 69.4043 6.41541 69.7464 6.41541C70.0789 6.41541 70.3387 6.28812 70.5255 6.03354C70.7124 5.77577 70.8058 5.36526 70.8058 4.80201C70.8058 4.32149 70.7124 3.94917 70.5255 3.68504C70.3387 3.42091 70.0758 3.28885 69.7369 3.28885C69.4012 3.28885 69.1414 3.42091 68.9578 3.68504C68.7741 3.94598 68.6822 4.35172 68.6822 4.90225Z" fill="url(#paint13_linear_941_64)"/>
<path d="M74.3119 2.26735L74.3547 2.84493C74.7189 2.39623 75.2114 2.17188 75.8322 2.17188C76.4941 2.17188 76.9486 2.43442 77.1956 2.95949C77.5567 2.43442 78.0714 2.17188 78.7396 2.17188C79.2971 2.17188 79.712 2.33577 79.9843 2.66354C80.2567 2.98813 80.3929 3.47819 80.3929 4.13374V7.43213H79.0152V4.13851C79.0152 3.84574 78.9582 3.63253 78.8442 3.49888C78.7301 3.36204 78.529 3.29362 78.2408 3.29362C77.8291 3.29362 77.544 3.49092 77.3857 3.88552L77.3904 7.43213H76.0174V4.14328C76.0174 3.84415 75.9588 3.62776 75.8417 3.4941C75.7245 3.36045 75.5249 3.29362 75.243 3.29362C74.8535 3.29362 74.5716 3.45592 74.3974 3.78051V7.43213H73.0244V2.26735H74.3119Z" fill="url(#paint14_linear_941_64)"/>
<path d="M13.3367 11.1389C13.3367 11.1644 13.1786 11.2103 12.9848 11.246C12.7706 11.2868 12.6176 11.3378 12.6023 11.3837C12.587 11.4245 12.5411 11.4551 12.4952 11.4551C12.4544 11.4551 12.4187 11.4755 12.4187 11.5062C12.4187 11.5317 12.3881 11.5572 12.3473 11.5572C12.3065 11.5572 12.2402 11.598 12.2045 11.6541C12.1688 11.7051 12.0923 11.7612 12.0311 11.7816C11.975 11.7969 11.8934 11.8734 11.8526 11.9499C11.8118 12.0264 11.72 12.1489 11.6435 12.2254C11.5721 12.307 11.4956 12.4141 11.4752 12.4702C11.4599 12.5314 11.4242 12.5773 11.4038 12.5773C11.3834 12.5773 11.3324 12.7355 11.2967 12.9344C11.261 13.1282 11.21 13.2915 11.1845 13.2915C11.1641 13.2915 11.1437 13.5312 11.1437 13.8271C11.1437 14.1229 11.1641 14.3627 11.1845 14.3627C11.2049 14.3627 11.2559 14.5004 11.2865 14.6687C11.3528 14.9901 11.5007 15.2859 11.6741 15.4593C11.7353 15.5155 11.8118 15.6277 11.8526 15.7042C11.8934 15.7807 11.9801 15.8572 12.0413 15.8725C12.1025 15.8878 12.1841 15.9643 12.2198 16.0357C12.2606 16.1123 12.3218 16.1939 12.3524 16.2143C12.3881 16.2347 12.4187 16.2908 12.4187 16.3265C12.4187 16.3673 12.4391 16.403 12.4646 16.403C12.6023 16.403 12.6839 17.5762 12.5564 17.7037C12.5207 17.7395 12.3473 17.7854 12.1739 17.8058C12.0005 17.8262 11.8577 17.8568 11.8577 17.8823C11.8577 17.9027 11.72 17.9486 11.5517 17.9843C11.3834 18.02 11.2457 18.071 11.2457 18.0914C11.2457 18.1169 11.1896 18.1373 11.1233 18.1373C11.0519 18.1373 10.9652 18.1679 10.9244 18.2087C10.8887 18.2495 10.7561 18.3108 10.6439 18.3465C10.5266 18.3822 10.4297 18.423 10.4297 18.4434C10.4297 18.4638 10.3379 18.5097 10.2308 18.5454C10.1186 18.5811 10.0166 18.6423 10.0013 18.678C9.98597 18.7188 9.94007 18.7494 9.89417 18.7494C9.85337 18.7494 9.81767 18.7698 9.81767 18.7953C9.81767 18.8208 9.77176 18.8616 9.71566 18.8769C9.63406 18.9025 9.52696 18.8208 9.20566 18.5046C8.98125 18.2801 8.79765 18.0761 8.79765 18.0455C8.79765 18.02 8.76705 17.9843 8.72625 17.969C8.68545 17.9537 8.63955 17.8313 8.61914 17.6833C8.59874 17.5405 8.56304 17.4232 8.53754 17.4232C8.46614 17.4232 8.48144 17.1784 8.55794 17.1579C8.64464 17.1273 8.64974 15.0921 8.55794 15.036C8.52224 15.0156 8.48144 14.8982 8.46104 14.7809C8.44064 14.6636 8.41004 14.5667 8.38454 14.5667C8.36414 14.5667 8.31314 14.4749 8.28254 14.3627C8.24684 14.2504 8.20604 14.1586 8.19074 14.1586C8.17544 14.1586 8.12954 14.0872 8.08874 14.0005C7.96123 13.7097 7.30332 13.0466 6.98202 12.8834C6.90042 12.8426 6.81371 12.7763 6.79331 12.7457C6.77291 12.71 6.71681 12.6794 6.68111 12.6794C6.64031 12.6794 6.60461 12.659 6.60461 12.6385C6.60461 12.613 6.48221 12.5671 6.33941 12.5263C6.1915 12.4906 6.0589 12.4396 6.0436 12.4192C6.0283 12.3937 5.7529 12.3529 5.43159 12.3172C4.81448 12.256 3.86586 12.3172 3.80466 12.4192C3.78426 12.4498 3.67206 12.4855 3.55476 12.5059C3.43236 12.5263 3.30486 12.5722 3.26916 12.6079C3.22835 12.6437 3.14165 12.6896 3.06515 12.71C2.99375 12.7253 2.93255 12.7559 2.93255 12.7763C2.93255 12.7916 2.86115 12.8375 2.77445 12.8783C2.59594 12.9548 1.83093 13.7148 1.78503 13.8577C1.76463 13.9087 1.72893 13.9546 1.70343 13.9546C1.67793 13.9546 1.65753 13.9903 1.65753 14.0311C1.65753 14.077 1.62693 14.1229 1.58613 14.1382C1.54533 14.1535 1.48412 14.281 1.44842 14.4188C1.41272 14.5565 1.36682 14.6687 1.34642 14.6687C1.32602 14.6687 1.29542 14.7554 1.27502 14.8574C1.25462 14.9646 1.21382 15.0666 1.18322 15.087C1.10162 15.138 1.09652 16.9539 1.17812 17.0049C1.20872 17.0253 1.24952 17.1324 1.26482 17.2396C1.28522 17.3518 1.31582 17.4538 1.34132 17.4691C1.36172 17.4844 1.41272 17.5966 1.44332 17.7139C1.47902 17.8364 1.53003 17.9333 1.55553 17.9333C1.58103 17.9333 1.61673 17.9843 1.63713 18.0455C1.67283 18.1628 1.68813 18.1883 1.88703 18.4128C1.95843 18.4944 2.01453 18.576 2.01453 18.5964C2.01453 18.6576 2.23894 18.8718 2.38684 18.9484C2.46334 18.9892 2.52454 19.0402 2.52454 19.0657C2.52454 19.0912 2.58064 19.132 2.65204 19.1575C2.72345 19.183 2.77955 19.2289 2.77955 19.2544C2.77955 19.2799 2.84585 19.3156 2.93255 19.336C3.01415 19.3564 3.08555 19.387 3.08555 19.4074C3.08555 19.4278 3.17735 19.4789 3.28956 19.5146C3.40176 19.5503 3.49356 19.6013 3.49356 19.6217C3.49356 19.6421 3.60066 19.6778 3.73836 19.6982C3.87096 19.7186 3.99337 19.7594 4.01377 19.79C4.06987 19.8767 5.6968 19.8665 5.7274 19.7798C5.7478 19.7135 6.50261 19.688 6.50261 19.7594C6.50261 19.7798 6.59951 19.8257 6.71681 19.8614C6.86982 19.9073 7.04832 20.0502 7.35942 20.3613C7.59403 20.596 7.76233 20.7898 7.73173 20.7898C7.70113 20.7898 7.67563 20.8204 7.67563 20.8561C7.67563 20.8969 7.62973 20.9785 7.57363 21.0448C7.51753 21.1111 7.47163 21.1877 7.47163 21.2234C7.47163 21.2591 7.42572 21.3356 7.36962 21.4019C7.31352 21.4682 7.26762 21.5498 7.26762 21.5906C7.26762 21.6263 7.24722 21.6569 7.22172 21.6569C7.19622 21.6569 7.14522 21.7692 7.10952 21.912C7.07382 22.0497 7.02792 22.167 7.00752 22.167C6.98712 22.167 6.95142 22.2435 6.93612 22.3303C6.91572 22.4221 6.88002 22.5088 6.85452 22.5241C6.83412 22.5394 6.78311 22.7077 6.74741 22.8965C6.71171 23.0852 6.66581 23.2382 6.64541 23.2382C6.63011 23.2382 6.59441 23.3657 6.57911 23.5188L6.54341 23.7993H6.064C5.7988 23.7993 5.58459 23.784 5.58459 23.7585C5.58459 23.7381 5.47239 23.6973 5.33469 23.6616C5.12559 23.6106 5.02358 23.5392 4.73288 23.2433C4.53908 23.0444 4.35547 22.8812 4.32487 22.8812C4.29427 22.8812 4.25857 22.8506 4.24327 22.8097C4.22797 22.7689 4.14637 22.723 4.05967 22.7026C3.97297 22.6822 3.90157 22.6516 3.90157 22.6261C3.90157 22.6057 3.84036 22.57 3.76386 22.5496C3.68736 22.5343 3.61086 22.4935 3.59046 22.468C3.57516 22.4425 3.36096 22.3966 3.11615 22.3609C2.76935 22.3201 2.55004 22.3201 2.16244 22.3711C1.88703 22.4068 1.65753 22.4527 1.65753 22.4731C1.65753 22.4935 1.60143 22.5292 1.53003 22.5445C1.45862 22.5649 1.40252 22.5955 1.40252 22.621C1.40252 22.6465 1.33112 22.6822 1.24442 22.7026C1.15772 22.723 1.07612 22.7689 1.06082 22.8097C1.05062 22.8455 0.989417 22.8914 0.938416 22.9067C0.810914 22.9475 0.632411 23.126 0.540609 23.3045C0.499808 23.381 0.448808 23.4423 0.423307 23.4423C0.402907 23.4423 0.382506 23.478 0.382506 23.5188C0.382506 23.5647 0.351906 23.6106 0.311105 23.6259C0.270305 23.6412 0.209104 23.7585 0.173403 23.8911C0.137702 24.0238 0.0867015 24.1462 0.0561009 24.1666C0.0204003 24.1921 0 24.5032 0 25.049C0 25.5948 0.0204003 25.906 0.0561009 25.9315C0.0867015 25.9519 0.137702 26.0743 0.173403 26.2069C0.209104 26.3396 0.270305 26.4569 0.311105 26.4722C0.351906 26.4875 0.382506 26.5283 0.382506 26.5589C0.382506 26.6507 1.10672 27.3495 1.24952 27.3955C1.31582 27.4159 1.40252 27.4669 1.44332 27.5026C1.47902 27.5434 1.56573 27.574 1.63203 27.574C1.69833 27.574 1.75953 27.5944 1.76973 27.625C1.80033 27.7219 2.59084 27.7831 3.06515 27.727C3.30996 27.7015 3.52416 27.6556 3.53946 27.6352C3.55476 27.6097 3.64656 27.5689 3.73836 27.5485C3.82506 27.5332 3.90157 27.4975 3.90157 27.472C3.90157 27.4465 3.97297 27.4159 4.05457 27.3955C4.14127 27.375 4.23307 27.3189 4.25857 27.2628C4.28917 27.2118 4.34527 27.1659 4.38097 27.1659C4.45237 27.1659 4.81958 26.7782 4.81958 26.7017C4.81958 26.6762 4.85528 26.6558 4.89608 26.6558C4.94198 26.6558 4.98788 26.6252 5.00318 26.5844C5.01848 26.5436 5.14599 26.4824 5.28369 26.4467C5.42139 26.411 5.53359 26.3651 5.53359 26.3396C5.53359 26.3192 5.758 26.2988 6.0385 26.2988H6.54341L6.57911 26.5793C6.59441 26.7323 6.63011 26.8599 6.64541 26.8599C6.66581 26.8599 6.71171 27.0129 6.74741 27.2016C6.78311 27.3904 6.83412 27.5587 6.85452 27.574C6.88002 27.5893 6.91572 27.676 6.93612 27.7678C6.95142 27.8545 6.98712 27.931 7.01262 27.931C7.03302 27.931 7.07892 28.0484 7.11462 28.1861C7.15032 28.3289 7.19622 28.4411 7.22172 28.4411C7.24722 28.4411 7.26762 28.4768 7.26762 28.5177C7.26762 28.5636 7.29822 28.6095 7.33902 28.6248C7.37982 28.6401 7.43082 28.7217 7.44613 28.8084C7.46653 28.89 7.51243 28.9716 7.54813 28.9869C7.58893 28.9971 7.63483 29.0787 7.65013 29.1604C7.67053 29.242 7.70623 29.3083 7.73683 29.3083C7.76233 29.3083 7.50223 29.5939 7.15032 29.9459C6.80351 30.2979 6.48731 30.5835 6.45671 30.5835C6.42611 30.5835 6.38531 30.6192 6.37001 30.66C6.35471 30.7008 6.2374 30.7467 6.115 30.7671C5.9926 30.7824 5.8906 30.8182 5.8906 30.8437C5.8906 30.8692 5.8192 30.8896 5.7325 30.8896C5.52339 30.8896 5.12559 30.9916 5.12559 31.0477C5.12559 31.0732 5.09499 31.0936 5.05929 31.0936C5.01848 31.0936 4.93688 31.1395 4.87058 31.1956C4.80428 31.2517 4.73288 31.2976 4.70738 31.2976C4.63088 31.2976 4.29427 31.6649 4.20757 31.8332C4.16677 31.92 4.12087 31.9965 4.10557 32.0118C4.04437 32.0679 3.95257 32.3331 3.95257 32.4453C3.95257 32.5168 3.93217 32.5729 3.90157 32.5729C3.87097 32.5729 3.85056 32.7769 3.85056 33.083C3.85056 33.3686 3.87096 33.593 3.89647 33.593C3.92707 33.593 3.96277 33.6951 3.98317 33.8226C3.99847 33.9552 4.04437 34.0878 4.08007 34.1184C4.11577 34.1541 4.16167 34.2358 4.17697 34.297C4.22287 34.4296 4.63088 34.8683 4.71248 34.8683C4.74308 34.8683 4.76858 34.8887 4.76858 34.9142C4.76858 34.9397 4.85018 34.9907 4.94708 35.0264C5.04398 35.0621 5.12559 35.1131 5.12559 35.1335C5.12559 35.1539 5.21739 35.1896 5.32959 35.2049C5.44179 35.2253 5.54889 35.261 5.56419 35.2814C5.59989 35.3427 6.65561 35.3427 6.65561 35.2814C6.65561 35.2559 6.74741 35.2202 6.85962 35.1998C6.97182 35.1794 7.06362 35.1488 7.06362 35.1233C7.06362 35.1029 7.11972 35.0672 7.19112 35.0519C7.32882 35.0162 7.93063 34.4653 7.93063 34.3735C7.93063 34.3429 7.96123 34.3072 8.00203 34.2919C8.03773 34.2766 8.08874 34.2001 8.10914 34.1184C8.12444 34.0419 8.16014 33.9654 8.18564 33.9501C8.23664 33.9195 8.33864 33.1748 8.33864 32.8432C8.33864 32.7208 8.35904 32.6239 8.38454 32.6239C8.41004 32.6239 8.44574 32.5423 8.46104 32.4453C8.48144 32.3484 8.51204 32.2668 8.53754 32.2668C8.55794 32.2668 8.60894 32.2056 8.64465 32.1342C8.68545 32.0628 8.90985 31.8128 9.14955 31.5782C9.53206 31.1956 9.58816 31.1548 9.68506 31.2058C9.74626 31.2364 9.80236 31.2772 9.81767 31.2925C9.85337 31.3333 10.1186 31.4864 10.292 31.5629C10.3685 31.5986 10.4297 31.6445 10.4297 31.6598C10.4297 31.6802 10.5011 31.7108 10.5827 31.7312C10.6694 31.7516 10.7357 31.7822 10.7357 31.8077C10.7357 31.8281 10.853 31.874 10.9907 31.9097C11.1335 31.9455 11.2457 31.9914 11.2457 32.0118C11.2457 32.0322 11.3936 32.0832 11.5772 32.1189C11.7608 32.1546 11.9087 32.2005 11.9087 32.2209C11.9087 32.2413 12.0515 32.2719 12.23 32.2923C12.4034 32.3127 12.5615 32.3535 12.5819 32.3892C12.6839 32.5423 12.5819 33.6951 12.4646 33.6951C12.4391 33.6951 12.4187 33.7206 12.4187 33.7563C12.4187 33.7869 12.2606 33.9705 12.0668 34.1592C11.873 34.3531 11.6996 34.5571 11.6792 34.6132C11.6639 34.6693 11.6282 34.7152 11.6078 34.7152C11.5823 34.7152 11.5364 34.7918 11.4956 34.8785C11.4599 34.9703 11.4191 35.057 11.4038 35.0723C11.3528 35.1182 11.2457 35.4549 11.2457 35.5722C11.2457 35.6334 11.2253 35.6844 11.1947 35.6844C11.1641 35.6844 11.1437 35.9038 11.1437 36.2455C11.1437 36.5516 11.1641 36.8066 11.1845 36.8066C11.2049 36.8066 11.2559 36.9443 11.2865 37.1127C11.3222 37.281 11.3732 37.4187 11.3987 37.4187C11.4191 37.4187 11.4599 37.4901 11.4752 37.582C11.516 37.7503 12.2402 38.5409 12.3575 38.5409C12.3932 38.5409 12.4187 38.5613 12.4187 38.5868C12.4187 38.6123 12.4799 38.648 12.5513 38.6633C12.6278 38.6837 12.7196 38.7297 12.7553 38.7705C12.7961 38.8113 12.9644 38.8572 13.1327 38.8776C13.301 38.898 13.4387 38.9337 13.4387 38.9541C13.4387 38.9796 13.6325 39 13.8722 39C14.1272 39 14.3057 38.9796 14.3057 38.949C14.3057 38.9184 14.3669 38.898 14.4383 38.898C14.6168 38.898 15.0198 38.7909 15.0198 38.745C15.0198 38.7246 15.081 38.6888 15.1524 38.6735C15.3054 38.6327 15.3309 38.6123 15.7746 38.1839C16.0857 37.888 16.3458 37.4952 16.3458 37.3269C16.3458 37.2963 16.3662 37.2657 16.3917 37.2657C16.4223 37.2657 16.458 37.1637 16.4784 37.0362C16.4937 36.9086 16.5294 36.7913 16.5549 36.776C16.6161 36.7403 16.611 35.8017 16.5498 35.7609C16.5243 35.7456 16.4988 35.6538 16.4988 35.5569C16.4988 35.4651 16.4682 35.3529 16.4274 35.3172C16.3917 35.2763 16.3407 35.1743 16.3254 35.0876C16.2948 34.9448 16.2489 34.8734 16.0398 34.6285C16.0143 34.5928 15.9888 34.552 15.9888 34.5316C15.9888 34.5112 15.8511 34.3582 15.6879 34.195C15.5196 34.0317 15.3666 33.8481 15.3462 33.7818C15.3258 33.7206 15.285 33.6543 15.2544 33.6339C15.2187 33.6083 15.1932 33.3533 15.183 32.9656L15.1626 32.3331L15.4737 32.2974C15.6471 32.277 15.7848 32.2464 15.7848 32.226C15.7848 32.2056 15.9378 32.1597 16.1265 32.124C16.3152 32.0883 16.4835 32.0373 16.4988 32.0118C16.5141 31.9863 16.6365 31.9404 16.7691 31.9097C16.9017 31.874 17.0088 31.8281 17.0088 31.8077C17.0088 31.7873 17.0649 31.7516 17.1363 31.7363C17.2077 31.7159 17.2638 31.6853 17.2638 31.6598C17.2638 31.6343 17.3352 31.5986 17.4219 31.5782C17.5086 31.5578 17.5902 31.5119 17.6055 31.4762C17.6157 31.4354 17.6973 31.3895 17.7789 31.3742C17.8605 31.3538 17.9268 31.318 17.9268 31.2925C17.9268 31.267 17.9778 31.2262 18.0441 31.2007C18.141 31.165 18.2073 31.2109 18.5439 31.5527C18.7581 31.7669 18.9468 31.9863 18.9621 32.0322C18.9825 32.0781 19.0131 32.1138 19.0386 32.1138C19.1457 32.1138 19.212 32.7004 19.1559 33.0728C19.0488 33.7614 19.11 35.1539 19.2579 35.3018C19.2834 35.3274 19.3038 35.3886 19.3038 35.4345C19.3038 35.4855 19.3344 35.5569 19.3701 35.5926C19.4109 35.6283 19.4721 35.7507 19.5078 35.8629C19.5435 35.9752 19.6047 36.0874 19.6404 36.1078C19.6812 36.1282 19.7118 36.1792 19.7118 36.2098C19.7118 36.2455 19.773 36.3322 19.8546 36.3985C19.9311 36.47 20.0229 36.5873 20.0637 36.6638C20.1045 36.7403 20.1861 36.8219 20.2422 36.8372C20.3034 36.8576 20.4054 36.9341 20.4768 37.0055C20.5482 37.0821 20.6757 37.1739 20.7573 37.2147C20.8441 37.2555 20.941 37.3218 20.9767 37.3575C21.0124 37.3881 21.0787 37.4187 21.1195 37.4187C21.1603 37.4187 21.1909 37.4391 21.1909 37.4646C21.1909 37.4901 21.3133 37.5411 21.4612 37.5717C21.604 37.6075 21.7417 37.6585 21.757 37.684C21.7723 37.7044 21.9712 37.7401 22.2007 37.7605C22.4302 37.7758 22.6189 37.8115 22.6189 37.8319C22.6189 37.8574 22.7107 37.8778 22.8229 37.8778C22.9351 37.8778 23.0269 37.8574 23.0269 37.8319C23.0269 37.8115 23.2258 37.7758 23.4706 37.7605C23.7103 37.7401 23.9245 37.7095 23.9398 37.684C23.9551 37.6585 24.0928 37.6075 24.2407 37.5717C24.3835 37.5411 24.5059 37.4901 24.5059 37.4697C24.5059 37.4442 24.5773 37.4136 24.6589 37.3932C24.7456 37.3728 24.8119 37.3371 24.8119 37.3116C24.8119 37.2861 24.868 37.2402 24.9394 37.2147C25.0108 37.1892 25.0669 37.1433 25.0669 37.1127C25.0669 37.0872 25.0924 37.0617 25.1281 37.0617C25.1587 37.0617 25.3627 36.878 25.5718 36.6587C26.0359 36.1741 26.0461 36.1639 26.1328 35.9548C26.1685 35.8629 26.2195 35.7864 26.2348 35.7864C26.2552 35.7864 26.3011 35.664 26.3419 35.5161C26.3776 35.3733 26.4286 35.2355 26.4541 35.2202C26.4796 35.2049 26.5102 35.0723 26.5306 34.9295C26.5459 34.7816 26.5816 34.6642 26.602 34.6642C26.6275 34.6642 26.6479 34.3633 26.6479 34.0011C26.6479 33.6288 26.6275 33.338 26.602 33.338C26.5765 33.338 26.5357 33.2105 26.5204 33.0574C26.5 32.9044 26.4694 32.7769 26.449 32.7769C26.4286 32.7769 26.3827 32.6596 26.347 32.5219C26.3113 32.379 26.2603 32.2668 26.2399 32.2668C26.2144 32.2668 26.1787 32.2158 26.1583 32.1546C26.1175 32.0169 25.9339 31.7465 25.8472 31.6904C25.8115 31.67 25.7809 31.6241 25.7809 31.5935C25.7809 31.5323 25.3933 31.1446 25.3321 31.1446C25.3117 31.1446 25.2403 31.0834 25.174 31.0171C25.1077 30.9457 25.0261 30.8896 24.9904 30.8896C24.9547 30.8896 24.9139 30.8539 24.8935 30.8131C24.8782 30.7722 24.8323 30.7365 24.7864 30.7365C24.7456 30.7365 24.7099 30.7161 24.7099 30.6957C24.7099 30.6549 24.4141 30.5325 24.307 30.5325C24.2713 30.5325 24.2101 30.5019 24.1693 30.4611C24.1336 30.4203 23.95 30.3693 23.7664 30.354C23.5828 30.3336 23.4349 30.2979 23.4349 30.2724C23.4349 30.2009 22.2721 30.2163 22.2517 30.2877C22.2364 30.3285 22.0579 30.3489 21.6958 30.3489C21.247 30.354 21.145 30.3387 21.0685 30.2673C21.0175 30.2162 20.9563 30.1754 20.9257 30.1754C20.8951 30.1754 20.6757 29.9816 20.4462 29.7419C20.0382 29.3287 20.0229 29.3032 20.079 29.1706C20.1096 29.089 20.1657 29.0022 20.1963 28.9767C20.232 28.9461 20.2779 28.8696 20.2983 28.7982C20.3187 28.7268 20.3799 28.6146 20.4309 28.5483C20.487 28.4819 20.5278 28.3952 20.5278 28.3595C20.5278 28.3187 20.5482 28.2881 20.5686 28.2881C20.5941 28.2881 20.64 28.1759 20.6757 28.0331C20.7114 27.8953 20.7624 27.778 20.7828 27.778C20.8083 27.778 20.8389 27.6862 20.8594 27.574C20.8798 27.4618 20.9155 27.3699 20.9359 27.3699C20.9614 27.3699 21.0073 27.1965 21.043 26.9874C21.0736 26.7782 21.1246 26.6048 21.145 26.6048C21.1705 26.6048 21.1909 26.5334 21.1909 26.4518V26.2988H21.7009C21.9814 26.2988 22.2109 26.3192 22.2109 26.3447C22.2109 26.3702 22.2874 26.4059 22.3843 26.4212C22.4761 26.4416 22.6087 26.4977 22.6699 26.5538C22.7362 26.6099 22.8178 26.6558 22.8484 26.6558C22.8841 26.6558 22.9402 26.717 22.9708 26.7935C23.0065 26.8752 23.1136 26.9925 23.2105 27.0639C23.3125 27.1353 23.4298 27.2271 23.4757 27.273C23.5216 27.3189 23.6185 27.375 23.6899 27.3955C23.7562 27.4159 23.8429 27.4669 23.8837 27.5026C23.9194 27.5434 24.0061 27.574 24.0724 27.574C24.1387 27.574 24.1999 27.5944 24.2101 27.625C24.2407 27.7219 25.0312 27.7831 25.5055 27.727C25.7503 27.7015 25.9645 27.6556 25.9798 27.6352C25.9951 27.6097 26.0869 27.5689 26.1787 27.5485C26.2654 27.5332 26.3419 27.4975 26.3419 27.4822C26.3419 27.4618 26.4133 27.4108 26.5051 27.375C26.6989 27.2883 27.311 26.6864 27.311 26.5844C27.311 26.5436 27.3467 26.5028 27.3875 26.4824C27.4283 26.4671 27.464 26.4212 27.464 26.3753C27.464 26.3345 27.4844 26.2988 27.5099 26.2988C27.5354 26.2988 27.5864 26.1712 27.6221 26.0182C27.6578 25.8652 27.7037 25.7377 27.7292 25.7377C27.7496 25.7377 27.77 25.4265 27.77 25.049C27.77 24.6716 27.7496 24.3604 27.7292 24.3604C27.7037 24.3604 27.6578 24.2329 27.6221 24.0799C27.5864 23.9268 27.5354 23.7993 27.5099 23.7993C27.4844 23.7993 27.464 23.7636 27.464 23.7228C27.464 23.6871 27.4334 23.631 27.3977 23.6106C27.362 23.5902 27.3059 23.5086 27.2753 23.427C27.2396 23.3504 27.1886 23.2892 27.158 23.2892C27.1325 23.2892 27.107 23.2586 27.107 23.2229C27.107 23.1464 26.8826 22.9322 26.8009 22.9322C26.7754 22.9322 26.7295 22.8914 26.704 22.8352C26.6734 22.7842 26.5867 22.723 26.5102 22.7026C26.4337 22.6873 26.3572 22.6516 26.3419 22.6363C26.1736 22.417 25.3372 22.2792 24.6283 22.3609C24.3529 22.3915 24.1183 22.4374 24.103 22.4629C24.0877 22.4884 24.0214 22.5241 23.9602 22.5445C23.8939 22.5649 23.8429 22.6006 23.8429 22.6261C23.8429 22.6516 23.7715 22.6822 23.6848 22.7026C23.5981 22.723 23.5165 22.7689 23.5012 22.8097C23.4859 22.8506 23.4502 22.8812 23.4247 22.8812C23.3686 22.8812 23.2819 22.9577 22.8739 23.3504C22.6189 23.6055 22.4455 23.6973 22.2313 23.6973C22.165 23.6973 22.1089 23.7177 22.1089 23.7483C22.1089 23.7789 21.9202 23.7993 21.6499 23.7993H21.1909V23.6463C21.1909 23.5596 21.1705 23.4933 21.145 23.4933C21.1246 23.4933 21.0736 23.3198 21.043 23.1107C21.0073 22.9016 20.9614 22.7281 20.9359 22.7281C20.9155 22.7281 20.8798 22.6363 20.8594 22.5241C20.8389 22.4119 20.8083 22.3201 20.7828 22.3201C20.7624 22.3201 20.7165 22.2027 20.6808 22.065C20.6451 21.9222 20.5992 21.81 20.5788 21.81C20.5584 21.81 20.5227 21.7488 20.5023 21.6722C20.487 21.5957 20.4513 21.5192 20.4309 21.5039C20.4105 21.4886 20.2983 21.3152 20.1861 21.1111L19.977 20.7439L20.589 20.1318C20.9257 19.79 21.2368 19.5146 21.2725 19.5146C21.3082 19.5146 21.3643 19.4687 21.3949 19.4125C21.4255 19.3564 21.4816 19.3105 21.5224 19.3105C21.5581 19.3105 21.5989 19.2901 21.6091 19.2646C21.6193 19.234 21.7825 19.1881 21.9814 19.1575C22.1752 19.1269 22.3486 19.081 22.3639 19.0606C22.3792 19.0351 22.4863 18.9892 22.6087 18.9535C22.726 18.9178 22.8229 18.8667 22.8229 18.8463C22.8229 18.8259 22.9249 18.7137 23.0524 18.5913C23.1799 18.4689 23.2819 18.3465 23.2819 18.3108C23.2819 18.2801 23.3176 18.2393 23.3584 18.2189C23.3992 18.2036 23.4349 18.1373 23.4349 18.0659C23.4349 17.9996 23.4655 17.9333 23.5012 17.918C23.5879 17.8925 23.5879 16.5713 23.5012 16.5152C23.4706 16.4948 23.4247 16.4132 23.4094 16.3367C23.389 16.2602 23.3533 16.199 23.3278 16.199C23.3023 16.199 23.2819 16.1735 23.2819 16.1378C23.2819 16.0664 22.7974 15.5869 22.7209 15.5869C22.6954 15.5869 22.6699 15.5665 22.6699 15.541C22.6699 15.5155 22.5424 15.4644 22.3894 15.4287C22.2364 15.393 22.1089 15.3471 22.1089 15.3216C22.1089 15.3012 21.9253 15.2808 21.7009 15.2808C21.4612 15.2808 21.2929 15.3012 21.2929 15.3318C21.2929 15.3573 21.2368 15.3828 21.1705 15.3828C21.0124 15.3828 20.7318 15.4849 20.7318 15.541C20.7318 15.5665 20.7012 15.5869 20.6604 15.5869C20.6196 15.5869 20.5533 15.6175 20.5176 15.6532C20.4819 15.694 20.4003 15.7501 20.334 15.7858C20.2728 15.8164 20.2218 15.8776 20.2218 15.9184C20.2218 15.9592 20.1963 15.9949 20.1708 15.9949C20.1402 15.9949 20.0892 16.0562 20.0535 16.1327C20.0229 16.2143 19.9668 16.3061 19.9311 16.3418C19.8954 16.3775 19.8648 16.4642 19.8648 16.5356C19.8648 16.6019 19.8444 16.6581 19.8189 16.6581C19.7985 16.6581 19.7475 16.8264 19.7169 17.0355C19.6761 17.2753 19.6251 17.4232 19.5792 17.4436C19.5384 17.4589 19.5078 17.4946 19.5078 17.5303C19.5078 17.5609 19.2018 17.8925 18.8295 18.2648C18.2379 18.8565 18.141 18.9331 18.039 18.8974C17.9778 18.8719 17.9268 18.831 17.9268 18.8004C17.9268 18.7749 17.8962 18.7494 17.8554 18.7494C17.8197 18.7494 17.7585 18.7137 17.7228 18.6729C17.6871 18.6321 17.5698 18.5709 17.4627 18.5352C17.3505 18.5046 17.2638 18.4587 17.2638 18.4383C17.2638 18.4128 17.172 18.3669 17.0598 18.3363C16.9476 18.3005 16.8558 18.2546 16.8558 18.2342C16.8558 18.2087 16.7742 18.1781 16.6773 18.1577C16.5804 18.1424 16.4988 18.1067 16.4988 18.0863C16.4988 18.0659 16.3611 18.02 16.1928 17.9843C16.0245 17.9486 15.8868 17.9027 15.8868 17.8772C15.8868 17.8568 15.7389 17.8211 15.5553 17.8058C15.2595 17.7701 15.2187 17.7548 15.1932 17.6476C15.1473 17.4589 15.1932 16.505 15.2544 16.4642C15.285 16.4438 15.336 16.352 15.3717 16.2602C15.4125 16.1735 15.4584 16.097 15.4839 16.097C15.5043 16.097 15.54 16.0511 15.5553 15.9949C15.5706 15.9388 15.6165 15.8929 15.6471 15.8929C15.7236 15.8929 15.9378 15.6685 15.9378 15.5971C15.9378 15.5665 15.9684 15.5206 16.0041 15.5002C16.1163 15.4287 16.3458 15.0513 16.3458 14.934C16.3458 14.8727 16.3662 14.8217 16.3917 14.8217C16.4223 14.8217 16.458 14.7197 16.4784 14.5922C16.4937 14.4647 16.5294 14.3474 16.5549 14.332C16.6161 14.2963 16.6161 13.2915 16.5549 13.2915C16.5294 13.2915 16.4937 13.1894 16.4784 13.0619C16.458 12.9344 16.4223 12.8324 16.3917 12.8324C16.3662 12.8324 16.3458 12.7865 16.3458 12.7253C16.3458 12.5722 16.2285 12.3682 16.0296 12.1795C15.9786 12.1336 15.9378 12.0775 15.9378 12.0519C15.9378 11.9958 15.7236 11.7612 15.6726 11.7612C15.6471 11.7612 15.5859 11.7204 15.5349 11.6694C15.3513 11.5061 15.2799 11.4551 15.2289 11.4551C15.2034 11.4551 15.1473 11.4194 15.1065 11.3786C15.0657 11.3378 14.8769 11.2766 14.6933 11.2409C14.5097 11.2052 14.3567 11.1593 14.3567 11.1389C14.3567 11.1134 14.1272 11.0981 13.8467 11.0981C13.5662 11.0981 13.3367 11.1185 13.3367 11.1389ZM3.57006 15.3624C3.74346 15.5512 3.73836 15.7603 3.54966 15.949C3.35076 16.1429 3.17225 16.1429 2.97335 15.9439C2.84075 15.8062 2.82035 15.7603 2.85095 15.5971C2.90705 15.2349 3.33036 15.1023 3.57006 15.3624ZM5.07969 16.148C5.19699 16.5356 4.85018 16.8264 4.48298 16.6479C4.17697 16.505 4.21267 15.9847 4.53398 15.9031C4.79918 15.8317 5.01338 15.9286 5.07969 16.148ZM3.85056 16.8111C3.95257 16.8876 3.97807 16.9539 3.97807 17.1426C3.97807 17.4283 3.83526 17.5762 3.56496 17.5762C3.32526 17.5762 3.18755 17.4283 3.18755 17.1681C3.18755 16.7805 3.55476 16.5815 3.85056 16.8111ZM15.6267 20.9989C15.8562 21.0805 15.9684 21.3509 15.8613 21.56C15.6114 22.0395 14.9382 21.7743 15.0708 21.2489C15.0861 21.1724 15.1728 21.0856 15.2799 21.0346C15.3717 20.9836 15.4533 20.9428 15.4584 20.9428C15.4635 20.9428 15.5349 20.9683 15.6267 20.9989ZM12.5666 21.509C12.9185 21.6161 13.2092 21.7794 13.4285 21.9834C13.5458 22.0956 13.6427 22.218 13.6427 22.2537C13.6427 22.2895 13.6631 22.3201 13.6886 22.3201C13.7651 22.3201 13.9487 22.9322 13.9487 23.1872C13.9487 23.7942 13.5203 24.4573 12.9491 24.7277C12.5921 24.896 11.8883 24.896 11.5313 24.7277C11.2355 24.5849 10.751 24.1105 10.7051 23.9115C10.6847 23.835 10.6439 23.7432 10.6133 23.7024C10.5827 23.6616 10.5572 23.4423 10.5623 23.1923C10.5623 22.8454 10.5878 22.7026 10.6796 22.5037C10.904 22.0344 11.2916 21.7131 11.8832 21.5141C12.0923 21.4427 12.3524 21.4427 12.5666 21.509ZM16.6671 23.9523C16.9017 24.0187 17.3403 24.442 17.4933 24.7379C17.6514 25.0439 17.6361 25.7377 17.4729 26.0641C17.325 26.3498 17.121 26.5589 16.8048 26.7476C16.6008 26.8701 16.5243 26.8854 16.0908 26.8854C15.6471 26.8854 15.5859 26.8752 15.3615 26.7374C14.8157 26.411 14.5607 25.9825 14.5607 25.3908C14.5607 24.6767 15.0147 24.0646 15.6624 23.9064C15.897 23.8452 16.3917 23.8707 16.6671 23.9523ZM10.4552 25.3602C10.6082 25.4622 10.6949 25.702 10.6337 25.8601C10.5266 26.1406 10.1492 26.2324 9.93497 26.0335C9.76156 25.8703 9.77176 25.5285 9.95027 25.3857C10.1135 25.2582 10.2869 25.248 10.4552 25.3602ZM13.0358 26.1457C13.2245 26.1967 13.6427 26.5436 13.6427 26.6456C13.6427 26.6813 13.6631 26.7068 13.6886 26.7068C13.7498 26.7068 13.8467 27.1149 13.8467 27.3802C13.8467 27.6454 13.76 27.9821 13.6937 27.9821C13.6631 27.9821 13.6427 28.0127 13.6427 28.0535C13.6427 28.1606 13.2653 28.4768 13.0868 28.5177C13.0001 28.533 12.9185 28.5738 12.9032 28.5993C12.8471 28.686 12.332 28.6503 12.0872 28.5432C11.2661 28.1912 11.0315 27.0894 11.6435 26.4773C11.873 26.2478 11.9546 26.1916 12.1025 26.1457C12.3014 26.0845 12.8216 26.0845 13.0358 26.1457ZM15.6522 28.6962C15.7236 28.7217 15.8154 28.8135 15.8613 28.9002C15.9378 29.0481 15.9378 29.0788 15.8664 29.2318C15.7593 29.4562 15.5451 29.5429 15.3003 29.4613C15.1626 29.4154 15.1116 29.3644 15.0861 29.2522C15.0504 29.0737 15.0504 29.0839 15.0861 28.9053C15.1269 28.6962 15.3972 28.5993 15.6522 28.6962ZM22.9861 32.0985C23.1187 32.2158 23.1085 32.5576 22.9657 32.7106C22.7209 32.9707 22.2364 32.7667 22.2466 32.4045C22.2517 32.226 22.3639 32.0577 22.5169 31.9965C22.6342 31.9506 22.8841 32.0016 22.9861 32.0985ZM24.409 32.7718C24.5824 32.9503 24.5926 33.037 24.4498 33.2666C24.3529 33.4247 24.3223 33.44 24.0979 33.44C23.8939 33.44 23.8429 33.4196 23.7715 33.3125C23.4706 32.8534 24.0214 32.3841 24.409 32.7718ZM23.3074 33.6543C23.4655 33.8379 23.4553 34.0317 23.2819 34.2154C23.0422 34.4755 22.5679 34.2715 22.5679 33.9042C22.5679 33.4961 23.0371 33.3329 23.3074 33.6543Z" fill="url(#paint15_linear_941_64)"/>
<path d="M36.2085 23.8271H35.0816L32.1911 19.2043V23.8271H31.0642V17.3114H32.1911L35.0905 21.952V17.3114H36.2085V23.8271Z" fill="url(#paint16_linear_941_64)"/>
<path d="M42.1227 20.7393C42.1227 21.3777 42.0128 21.9386 41.7931 22.4219C41.5734 22.9022 41.2586 23.2722 40.8489 23.5317C40.4421 23.7883 39.9729 23.9166 39.4414 23.9166C38.9159 23.9166 38.4467 23.7883 38.034 23.5317C37.6243 23.2722 37.3065 22.9037 37.0809 22.4264C36.8582 21.949 36.7454 21.3986 36.7424 20.7751V20.4081C36.7424 19.7727 36.8537 19.2118 37.0764 18.7255C37.3021 18.2392 37.6183 17.8678 38.0251 17.6112C38.4349 17.3517 38.904 17.2219 39.4325 17.2219C39.9611 17.2219 40.4287 17.3502 40.8355 17.6068C41.2453 17.8603 41.5615 18.2273 41.7842 18.7076C42.0069 19.185 42.1197 19.7414 42.1227 20.3768V20.7393ZM40.9958 20.3992C40.9958 19.6772 40.8592 19.1238 40.5861 18.7389C40.3159 18.3541 39.9314 18.1617 39.4325 18.1617C38.9456 18.1617 38.564 18.3541 38.2879 18.7389C38.0147 19.1208 37.8752 19.6623 37.8692 20.3634V20.7393C37.8692 21.4553 38.0073 22.0087 38.2834 22.3995C38.5625 22.7903 38.9485 22.9858 39.4414 22.9858C39.9403 22.9858 40.3233 22.7948 40.5905 22.4129C40.8607 22.0311 40.9958 21.4732 40.9958 20.7393V20.3992Z" fill="url(#paint17_linear_941_64)"/>
<path d="M44.839 22.4085L46.4869 17.3114H47.7251L45.3913 23.8271H44.3001L41.9752 17.3114H43.2089L44.839 22.4085Z" fill="url(#paint18_linear_941_64)"/>
<path d="M51.6573 20.9183H48.9939V22.9231H52.1072V23.8271H47.8671V17.3114H52.076V18.2243H48.9939V20.0233H51.6573V20.9183Z" fill="url(#paint19_linear_941_64)"/>
<path d="M53.5586 22.9231H56.5026V23.8271H52.4318V17.3114H53.5586V22.9231Z" fill="url(#paint20_linear_941_64)"/>
<path d="M36.0125 32.3982C35.9472 33.0934 35.6918 33.6363 35.2464 34.0271C34.801 34.415 34.2087 34.6089 33.4693 34.6089C32.9527 34.6089 32.4969 34.4866 32.102 34.2419C31.7101 33.9943 31.4072 33.6438 31.1934 33.1903C30.9796 32.7368 30.8683 32.2103 30.8594 31.6106V31.002C30.8594 30.3875 30.9677 29.846 31.1845 29.3776C31.4013 28.9092 31.7115 28.5482 32.1154 28.2946C32.5221 28.041 32.9913 27.9143 33.5228 27.9143C34.2384 27.9143 34.8144 28.1097 35.2509 28.5005C35.6874 28.8913 35.9412 29.4432 36.0125 30.1562H34.8901C34.8367 29.6879 34.7001 29.3507 34.4804 29.1449C34.2636 28.9361 33.9444 28.8316 33.5228 28.8316C33.0329 28.8316 32.6558 29.0121 32.3915 29.3731C32.1302 29.7311 31.9966 30.2577 31.9906 30.9528V31.5301C31.9906 32.2341 32.1154 32.7712 32.3648 33.1411C32.6172 33.511 32.9853 33.696 33.4693 33.696C33.9118 33.696 34.2443 33.5961 34.467 33.3962C34.6897 33.1963 34.8307 32.8636 34.8901 32.3982H36.0125Z" fill="url(#paint21_linear_941_64)"/>
<path d="M36.1233 32.0537C36.1233 31.5793 36.2168 31.1527 36.4039 30.7738C36.591 30.3919 36.8537 30.0996 37.1922 29.8967C37.5307 29.6908 37.9197 29.5879 38.3591 29.5879C39.0094 29.5879 39.5364 29.7982 39.9403 30.2189C40.3471 30.6395 40.5668 31.1974 40.5994 31.8926L40.6039 32.1476C40.6039 32.625 40.5118 33.0516 40.3278 33.4275C40.1466 33.8034 39.8853 34.0943 39.5439 34.3001C39.2054 34.506 38.8134 34.6089 38.3681 34.6089C37.6881 34.6089 37.1432 34.3822 36.7335 33.9287C36.3267 33.4722 36.1233 32.8651 36.1233 32.1074V32.0537ZM37.2056 32.1476C37.2056 32.6459 37.308 33.0367 37.5129 33.3201C37.7178 33.6005 38.0028 33.7407 38.3681 33.7407C38.7333 33.7407 39.0168 33.5975 39.2187 33.3111C39.4236 33.0247 39.5261 32.6056 39.5261 32.0537C39.5261 31.5644 39.4207 31.1766 39.2098 30.8901C39.002 30.6037 38.7184 30.4605 38.3591 30.4605C38.0058 30.4605 37.7252 30.6023 37.5174 30.8857C37.3095 31.1661 37.2056 31.5868 37.2056 32.1476Z" fill="url(#paint22_linear_941_64)"/>
<path d="M43.3158 33.1008L44.9637 28.0038H46.2019L43.868 34.5194H42.7768L40.4519 28.0038H41.6856L43.3158 33.1008Z" fill="url(#paint23_linear_941_64)"/>
<path d="M47.533 34.5194H46.4107V28.0038H47.533V34.5194Z" fill="url(#paint24_linear_941_64)"/>
<path d="M48.3253 34.5194V28.0038H50.2405C50.8135 28.0038 51.3213 28.132 51.7637 28.3886C52.2091 28.6452 52.5535 29.0091 52.797 29.4805C53.0405 29.9519 53.1622 30.4919 53.1622 31.1005V31.4272C53.1622 32.0447 53.039 32.5877 52.7925 33.0561C52.549 33.5245 52.2002 33.8854 51.7459 34.139C51.2945 34.3926 50.7764 34.5194 50.1915 34.5194H48.3253ZM49.4521 28.9167V33.6154H50.187C50.7779 33.6154 51.2307 33.4305 51.5454 33.0605C51.8632 32.6876 52.025 32.1536 52.0309 31.4585V31.096C52.0309 30.3889 51.878 29.849 51.5722 29.476C51.2663 29.1031 50.8224 28.9167 50.2405 28.9167H49.4521Z" fill="url(#paint25_linear_941_64)"/>
<path d="M56.4486 34.5194H55.3708V29.2881L53.7808 29.834V28.9167L56.3106 27.9814H56.4486V34.5194Z" fill="url(#paint26_linear_941_64)"/>
<path d="M61.1781 31.7941C60.8158 32.179 60.3927 32.3714 59.9087 32.3714C59.3386 32.3714 58.8844 32.1715 58.5459 31.7717C58.2074 31.369 58.0381 30.8409 58.0381 30.1876C58.0381 29.758 58.1242 29.3686 58.2964 29.0196C58.4687 28.6705 58.7136 28.399 59.0313 28.2051C59.349 28.0112 59.7172 27.9143 60.1359 27.9143C60.7891 27.9143 61.3073 28.1589 61.6903 28.6482C62.0733 29.1374 62.2648 29.7923 62.2648 30.6127V30.917C62.2648 32.0924 62.0006 32.9889 61.472 33.6065C60.9435 34.224 60.1552 34.5373 59.107 34.5462H58.9779V33.6468H59.1338C59.7722 33.6378 60.2621 33.4842 60.6035 33.1858C60.945 32.8845 61.1365 32.4206 61.1781 31.7941ZM60.1359 31.5211C60.3526 31.5211 60.556 31.4585 60.7461 31.3332C60.9361 31.2079 61.0831 31.0348 61.187 30.8141V30.3889C61.187 29.9086 61.089 29.5223 60.893 29.2299C60.6971 28.9375 60.4432 28.7914 60.1314 28.7914C59.8197 28.7914 59.5702 28.9211 59.3832 29.1807C59.1991 29.4373 59.107 29.7624 59.107 30.1562C59.107 30.565 59.2006 30.8946 59.3876 31.1452C59.5747 31.3958 59.8241 31.5211 60.1359 31.5211Z" fill="url(#paint27_linear_941_64)"/>
<path d="M75.179 29.7958H67.6322L65.9372 34.5194H63.4876L70.3664 16.4204H72.4448L79.336 34.5194H76.8987L75.179 29.7958ZM68.3498 27.8317H74.4738L71.4056 19.3664L68.3498 27.8317Z" fill="url(#paint28_linear_941_64)"/>
<path d="M82.4893 27.4339V34.5194H80.1139V16.4204H86.7576C88.7288 16.4204 90.2712 16.9259 91.3847 17.9369C92.5064 18.9479 93.0672 20.2863 93.0672 21.952C93.0672 23.7089 92.5187 25.0638 91.4218 26.0168C90.3331 26.9616 88.7701 27.4339 86.7328 27.4339H82.4893ZM82.4893 25.4823H86.7576C88.0278 25.4823 89.001 25.184 89.6773 24.5873C90.3537 23.9824 90.6918 23.1122 90.6918 21.9769C90.6918 20.8996 90.3537 20.0377 89.6773 19.3913C89.001 18.7449 88.0731 18.4093 86.8937 18.3844H82.4893V25.4823Z" fill="url(#paint29_linear_941_64)"/>
<path d="M97 34.5194H94.6246V16.4204H97V34.5194Z" fill="url(#paint30_linear_941_64)"/>
<defs>
<linearGradient id="paint0_linear_941_64" x1="0" y1="0" x2="99.1274" y2="34.2059" gradientUnits="userSpaceOnUse">
<stop stop-color="#0199EE"/>
<stop offset="1" stop-color="#01E5BB"/>
</linearGradient>
<linearGradient id="paint1_linear_941_64" x1="0" y1="0" x2="99.1274" y2="34.2059" gradientUnits="userSpaceOnUse">
<stop stop-color="#0199EE"/>
<stop offset="1" stop-color="#01E5BB"/>
</linearGradient>
<linearGradient id="paint2_linear_941_64" x1="0" y1="0" x2="99.1274" y2="34.2059" gradientUnits="userSpaceOnUse">
<stop stop-color="#0199EE"/>
<stop offset="1" stop-color="#01E5BB"/>
</linearGradient>
<linearGradient id="paint3_linear_941_64" x1="0" y1="0" x2="99.1274" y2="34.2059" gradientUnits="userSpaceOnUse">
<stop stop-color="#0199EE"/>
<stop offset="1" stop-color="#01E5BB"/>
</linearGradient>
<linearGradient id="paint4_linear_941_64" x1="0" y1="0" x2="99.1274" y2="34.2059" gradientUnits="userSpaceOnUse">
<stop stop-color="#0199EE"/>
<stop offset="1" stop-color="#01E5BB"/>
</linearGradient>
<linearGradient id="paint5_linear_941_64" x1="0" y1="0" x2="99.1274" y2="34.2059" gradientUnits="userSpaceOnUse">
<stop stop-color="#0199EE"/>
<stop offset="1" stop-color="#01E5BB"/>
</linearGradient>
<linearGradient id="paint6_linear_941_64" x1="0" y1="0" x2="99.1274" y2="34.2059" gradientUnits="userSpaceOnUse">
<stop stop-color="#0199EE"/>
<stop offset="1" stop-color="#01E5BB"/>
</linearGradient>
<linearGradient id="paint7_linear_941_64" x1="0" y1="0" x2="99.1274" y2="34.2059" gradientUnits="userSpaceOnUse">
<stop stop-color="#0199EE"/>
<stop offset="1" stop-color="#01E5BB"/>
</linearGradient>
<linearGradient id="paint8_linear_941_64" x1="0" y1="0" x2="99.1274" y2="34.2059" gradientUnits="userSpaceOnUse">
<stop stop-color="#0199EE"/>
<stop offset="1" stop-color="#01E5BB"/>
</linearGradient>
<linearGradient id="paint9_linear_941_64" x1="0" y1="0" x2="99.1274" y2="34.2059" gradientUnits="userSpaceOnUse">
<stop stop-color="#0199EE"/>
<stop offset="1" stop-color="#01E5BB"/>
</linearGradient>
<linearGradient id="paint10_linear_941_64" x1="0" y1="0" x2="99.1274" y2="34.2059" gradientUnits="userSpaceOnUse">
<stop stop-color="#0199EE"/>
<stop offset="1" stop-color="#01E5BB"/>
</linearGradient>
<linearGradient id="paint11_linear_941_64" x1="0" y1="0" x2="99.1274" y2="34.2059" gradientUnits="userSpaceOnUse">
<stop stop-color="#0199EE"/>
<stop offset="1" stop-color="#01E5BB"/>
</linearGradient>
<linearGradient id="paint12_linear_941_64" x1="0" y1="0" x2="99.1274" y2="34.2059" gradientUnits="userSpaceOnUse">
<stop stop-color="#0199EE"/>
<stop offset="1" stop-color="#01E5BB"/>
</linearGradient>
<linearGradient id="paint13_linear_941_64" x1="0" y1="0" x2="99.1274" y2="34.2059" gradientUnits="userSpaceOnUse">
<stop stop-color="#0199EE"/>
<stop offset="1" stop-color="#01E5BB"/>
</linearGradient>
<linearGradient id="paint14_linear_941_64" x1="0" y1="0" x2="99.1274" y2="34.2059" gradientUnits="userSpaceOnUse">
<stop stop-color="#0199EE"/>
<stop offset="1" stop-color="#01E5BB"/>
</linearGradient>
<linearGradient id="paint15_linear_941_64" x1="0" y1="0" x2="99.1274" y2="34.2059" gradientUnits="userSpaceOnUse">
<stop stop-color="#0199EE"/>
<stop offset="1" stop-color="#01E5BB"/>
</linearGradient>
<linearGradient id="paint16_linear_941_64" x1="0" y1="0" x2="99.1274" y2="34.2059" gradientUnits="userSpaceOnUse">
<stop stop-color="#0199EE"/>
<stop offset="1" stop-color="#01E5BB"/>
</linearGradient>
<linearGradient id="paint17_linear_941_64" x1="0" y1="0" x2="99.1274" y2="34.2059" gradientUnits="userSpaceOnUse">
<stop stop-color="#0199EE"/>
<stop offset="1" stop-color="#01E5BB"/>
</linearGradient>
<linearGradient id="paint18_linear_941_64" x1="0" y1="0" x2="99.1274" y2="34.2059" gradientUnits="userSpaceOnUse">
<stop stop-color="#0199EE"/>
<stop offset="1" stop-color="#01E5BB"/>
</linearGradient>
<linearGradient id="paint19_linear_941_64" x1="0" y1="0" x2="99.1274" y2="34.2059" gradientUnits="userSpaceOnUse">
<stop stop-color="#0199EE"/>
<stop offset="1" stop-color="#01E5BB"/>
</linearGradient>
<linearGradient id="paint20_linear_941_64" x1="0" y1="0" x2="99.1274" y2="34.2059" gradientUnits="userSpaceOnUse">
<stop stop-color="#0199EE"/>
<stop offset="1" stop-color="#01E5BB"/>
</linearGradient>
<linearGradient id="paint21_linear_941_64" x1="0" y1="0" x2="99.1274" y2="34.2059" gradientUnits="userSpaceOnUse">
<stop stop-color="#0199EE"/>
<stop offset="1" stop-color="#01E5BB"/>
</linearGradient>
<linearGradient id="paint22_linear_941_64" x1="0" y1="0" x2="99.1274" y2="34.2059" gradientUnits="userSpaceOnUse">
<stop stop-color="#0199EE"/>
<stop offset="1" stop-color="#01E5BB"/>
</linearGradient>
<linearGradient id="paint23_linear_941_64" x1="0" y1="0" x2="99.1274" y2="34.2059" gradientUnits="userSpaceOnUse">
<stop stop-color="#0199EE"/>
<stop offset="1" stop-color="#01E5BB"/>
</linearGradient>
<linearGradient id="paint24_linear_941_64" x1="0" y1="0" x2="99.1274" y2="34.2059" gradientUnits="userSpaceOnUse">
<stop stop-color="#0199EE"/>
<stop offset="1" stop-color="#01E5BB"/>
</linearGradient>
<linearGradient id="paint25_linear_941_64" x1="0" y1="0" x2="99.1274" y2="34.2059" gradientUnits="userSpaceOnUse">
<stop stop-color="#0199EE"/>
<stop offset="1" stop-color="#01E5BB"/>
</linearGradient>
<linearGradient id="paint26_linear_941_64" x1="0" y1="0" x2="99.1274" y2="34.2059" gradientUnits="userSpaceOnUse">
<stop stop-color="#0199EE"/>
<stop offset="1" stop-color="#01E5BB"/>
</linearGradient>
<linearGradient id="paint27_linear_941_64" x1="0" y1="0" x2="99.1274" y2="34.2059" gradientUnits="userSpaceOnUse">
<stop stop-color="#0199EE"/>
<stop offset="1" stop-color="#01E5BB"/>
</linearGradient>
<linearGradient id="paint28_linear_941_64" x1="0" y1="0" x2="99.1274" y2="34.2059" gradientUnits="userSpaceOnUse">
<stop stop-color="#0199EE"/>
<stop offset="1" stop-color="#01E5BB"/>
</linearGradient>
<linearGradient id="paint29_linear_941_64" x1="0" y1="0" x2="99.1274" y2="34.2059" gradientUnits="userSpaceOnUse">
<stop stop-color="#0199EE"/>
<stop offset="1" stop-color="#01E5BB"/>
</linearGradient>
<linearGradient id="paint30_linear_941_64" x1="0" y1="0" x2="99.1274" y2="34.2059" gradientUnits="userSpaceOnUse">
<stop stop-color="#0199EE"/>
<stop offset="1" stop-color="#01E5BB"/>
</linearGradient>
</defs>
</svg>
