<svg width="621" height="373" viewBox="0 0 621 373" fill="none" xmlns="http://www.w3.org/2000/svg">
<path d="M25.1626 362.669H22.9849V368.592H21.52V362.669H19.3716V361.483H25.1626V362.669ZM27.9019 368.69C27.1271 368.69 26.4956 368.452 26.0073 367.977C25.5223 367.502 25.2798 366.868 25.2798 366.077V365.941C25.2798 365.41 25.3823 364.936 25.5874 364.52C25.7925 364.1 26.0822 363.778 26.4566 363.553C26.8342 363.325 27.2639 363.211 27.7456 363.211C28.4683 363.211 29.0363 363.439 29.4497 363.895C29.8664 364.351 30.0747 364.997 30.0747 365.833V366.409H26.7105C26.756 366.754 26.8928 367.031 27.1206 367.24C27.3517 367.448 27.6431 367.552 27.9946 367.552C28.5383 367.552 28.9631 367.355 29.2691 366.961L29.9624 367.738C29.7508 368.037 29.4644 368.271 29.103 368.441C28.7417 368.607 28.3413 368.69 27.9019 368.69ZM27.7407 364.354C27.4608 364.354 27.2329 364.448 27.0571 364.637C26.8846 364.826 26.7739 365.096 26.7251 365.448H28.688V365.335C28.6815 365.023 28.5969 364.782 28.4341 364.613C28.2713 364.44 28.0402 364.354 27.7407 364.354ZM32.8921 364.886L33.7808 363.309H35.2896L33.7857 365.897L35.353 368.592H33.8394L32.897 366.932L31.9595 368.592H30.4409L32.0083 365.897L30.5093 363.309H32.023L32.8921 364.886ZM37.6577 362.01V363.309H38.5611V364.344H37.6577V366.981C37.6577 367.176 37.6952 367.316 37.77 367.401C37.8449 367.485 37.9881 367.528 38.1997 367.528C38.356 367.528 38.4943 367.516 38.6148 367.493V368.563C38.3381 368.647 38.0532 368.69 37.7603 368.69C36.7707 368.69 36.2661 368.19 36.2466 367.191V364.344H35.4751V363.309H36.2466V362.01H37.6577Z" fill="#0199EE"/>
<path d="M170.337 362.669H168.159V368.592H166.694V362.669H164.546V361.483H170.337V362.669ZM173.076 368.69C172.301 368.69 171.67 368.452 171.181 367.977C170.696 367.502 170.454 366.868 170.454 366.077V365.941C170.454 365.41 170.556 364.936 170.761 364.52C170.967 364.1 171.256 363.778 171.631 363.553C172.008 363.325 172.438 363.211 172.92 363.211C173.642 363.211 174.21 363.439 174.624 363.895C175.04 364.351 175.249 364.997 175.249 365.833V366.409H171.884C171.93 366.754 172.067 367.031 172.295 367.24C172.526 367.448 172.817 367.552 173.169 367.552C173.712 367.552 174.137 367.355 174.443 366.961L175.136 367.738C174.925 368.037 174.638 368.271 174.277 368.441C173.916 368.607 173.515 368.69 173.076 368.69ZM172.915 364.354C172.635 364.354 172.407 364.448 172.231 364.637C172.059 364.826 171.948 365.096 171.899 365.448H173.862V365.335C173.856 365.023 173.771 364.782 173.608 364.613C173.445 364.44 173.214 364.354 172.915 364.354ZM178.066 364.886L178.955 363.309H180.464L178.96 365.897L180.527 368.592H179.013L178.071 366.932L177.134 368.592H175.615L177.182 365.897L175.683 363.309H177.197L178.066 364.886ZM182.832 362.01V363.309H183.735V364.344H182.832V366.981C182.832 367.176 182.869 367.316 182.944 367.401C183.019 367.485 183.162 367.528 183.374 367.528C183.53 367.528 183.668 367.516 183.789 367.493V368.563C183.512 368.647 183.227 368.69 182.934 368.69C181.945 368.69 181.44 368.19 181.421 367.191V364.344H180.649V363.309H181.421V362.01H182.832Z" fill="#0199EE"/>
<path d="M314.27 362.669H312.092V368.592H310.627V362.669H308.479V361.483H314.27V362.669ZM317.009 368.69C316.234 368.69 315.603 368.452 315.115 367.977C314.63 367.502 314.387 366.868 314.387 366.077V365.941C314.387 365.41 314.49 364.936 314.695 364.52C314.9 364.1 315.19 363.778 315.564 363.553C315.942 363.325 316.371 363.211 316.853 363.211C317.576 363.211 318.144 363.439 318.557 363.895C318.974 364.351 319.182 364.997 319.182 365.833V366.409H315.818C315.863 366.754 316 367.031 316.228 367.24C316.459 367.448 316.75 367.552 317.102 367.552C317.646 367.552 318.07 367.355 318.376 366.961L319.07 367.738C318.858 368.037 318.572 368.271 318.21 368.441C317.849 368.607 317.449 368.69 317.009 368.69ZM316.848 364.354C316.568 364.354 316.34 364.448 316.165 364.637C315.992 364.826 315.881 365.096 315.832 365.448H317.795V365.335C317.789 365.023 317.704 364.782 317.541 364.613C317.379 364.44 317.148 364.354 316.848 364.354ZM321.999 364.886L322.888 363.309H324.397L322.893 365.897L324.46 368.592H322.947L322.004 366.932L321.067 368.592H319.548L321.116 365.897L319.617 363.309H321.13L321.999 364.886ZM326.765 362.01V363.309H327.668V364.344H326.765V366.981C326.765 367.176 326.803 367.316 326.877 367.401C326.952 367.485 327.095 367.528 327.307 367.528C327.463 367.528 327.602 367.516 327.722 367.493V368.563C327.445 368.647 327.161 368.69 326.868 368.69C325.878 368.69 325.373 368.19 325.354 367.191V364.344H324.582V363.309H325.354V362.01H326.765Z" fill="#0199EE"/>
<path d="M459.444 362.669H457.266V368.592H455.801V362.669H453.653V361.483H459.444V362.669ZM462.183 368.69C461.408 368.69 460.777 368.452 460.289 367.977C459.804 367.502 459.561 366.868 459.561 366.077V365.941C459.561 365.41 459.664 364.936 459.869 364.52C460.074 364.1 460.363 363.778 460.738 363.553C461.115 363.325 461.545 363.211 462.027 363.211C462.749 363.211 463.318 363.439 463.731 363.895C464.148 364.351 464.356 364.997 464.356 365.833V366.409H460.992C461.037 366.754 461.174 367.031 461.402 367.24C461.633 367.448 461.924 367.552 462.276 367.552C462.819 367.552 463.244 367.355 463.55 366.961L464.244 367.738C464.032 368.037 463.746 368.271 463.384 368.441C463.023 368.607 462.623 368.69 462.183 368.69ZM462.022 364.354C461.742 364.354 461.514 364.448 461.338 364.637C461.166 364.826 461.055 365.096 461.006 365.448H462.969V365.335C462.963 365.023 462.878 364.782 462.715 364.613C462.553 364.44 462.321 364.354 462.022 364.354ZM467.173 364.886L468.062 363.309H469.571L468.067 365.897L469.634 368.592H468.121L467.178 366.932L466.241 368.592H464.722L466.29 365.897L464.79 363.309H466.304L467.173 364.886ZM471.939 362.01V363.309H472.842V364.344H471.939V366.981C471.939 367.176 471.976 367.316 472.051 367.401C472.126 367.485 472.269 367.528 472.481 367.528C472.637 367.528 472.776 367.516 472.896 367.493V368.563C472.619 368.647 472.334 368.69 472.041 368.69C471.052 368.69 470.547 368.19 470.528 367.191V364.344H469.756V363.309H470.528V362.01H471.939Z" fill="#0199EE"/>
<path d="M603.377 362.669H601.199V368.592H599.735V362.669H597.586V361.483H603.377V362.669ZM606.116 368.69C605.342 368.69 604.71 368.452 604.222 367.977C603.737 367.502 603.494 366.868 603.494 366.077V365.941C603.494 365.41 603.597 364.936 603.802 364.52C604.007 364.1 604.297 363.778 604.671 363.553C605.049 363.325 605.478 363.211 605.96 363.211C606.683 363.211 607.251 363.439 607.664 363.895C608.081 364.351 608.289 364.997 608.289 365.833V366.409H604.925C604.971 366.754 605.107 367.031 605.335 367.24C605.566 367.448 605.858 367.552 606.209 367.552C606.753 367.552 607.178 367.355 607.484 366.961L608.177 367.738C607.965 368.037 607.679 368.271 607.318 368.441C606.956 368.607 606.556 368.69 606.116 368.69ZM605.955 364.354C605.675 364.354 605.447 364.448 605.272 364.637C605.099 364.826 604.988 365.096 604.94 365.448H606.903V365.335C606.896 365.023 606.811 364.782 606.649 364.613C606.486 364.44 606.255 364.354 605.955 364.354ZM611.107 364.886L611.995 363.309H613.504L612 365.897L613.568 368.592H612.054L611.112 366.932L610.174 368.592H608.655L610.223 365.897L608.724 363.309H610.238L611.107 364.886ZM615.872 362.01V363.309H616.776V364.344H615.872V366.981C615.872 367.176 615.91 367.316 615.985 367.401C616.059 367.485 616.203 367.528 616.414 367.528C616.571 367.528 616.709 367.516 616.829 367.493V368.563C616.553 368.647 616.268 368.69 615.975 368.69C614.985 368.69 614.481 368.19 614.461 367.191V364.344H613.69V363.309H614.461V362.01H615.872Z" fill="#0199EE"/>
<path d="M12.3224 4.50391L12.7326 0.890625H16.717V2.06738H13.8898L13.714 3.5957C14.0493 3.41667 14.4058 3.32715 14.7834 3.32715C15.4604 3.32715 15.991 3.53711 16.3752 3.95703C16.7593 4.37695 16.9513 4.96452 16.9513 5.71973C16.9513 6.17871 16.8537 6.59049 16.6584 6.95508C16.4663 7.31641 16.1896 7.59798 15.8283 7.7998C15.467 7.99837 15.0405 8.09766 14.549 8.09766C14.1193 8.09766 13.7205 8.01139 13.3527 7.83887C12.9849 7.66309 12.6935 7.41732 12.4787 7.10156C12.2671 6.78581 12.1548 6.42611 12.1418 6.02246H13.5382C13.5675 6.31868 13.6701 6.5498 13.8459 6.71582C14.0249 6.87858 14.2576 6.95996 14.5441 6.95996C14.8631 6.95996 15.1089 6.84603 15.2814 6.61816C15.4539 6.38704 15.5402 6.06152 15.5402 5.6416C15.5402 5.23796 15.4409 4.92871 15.2423 4.71387C15.0438 4.49902 14.7622 4.3916 14.3976 4.3916C14.0623 4.3916 13.7905 4.47949 13.5822 4.65527L13.4455 4.78223L12.3224 4.50391Z" fill="#0199EE"/>
<path d="M7.63493 47.5117H8.44059V48.6494H7.63493V50.1875H6.22379V48.6494H3.30875L3.24528 47.7607L6.20914 43.0781H7.63493V47.5117ZM4.65153 47.5117H6.22379V45.002L6.13102 45.1631L4.65153 47.5117ZM9.33414 49.4941C9.33414 49.2695 9.40901 49.0872 9.55875 48.9473C9.71175 48.8073 9.90218 48.7373 10.13 48.7373C10.3612 48.7373 10.5516 48.8073 10.7013 48.9473C10.8543 49.0872 10.9308 49.2695 10.9308 49.4941C10.9308 49.7155 10.856 49.8962 10.7062 50.0361C10.5565 50.1729 10.3644 50.2412 10.13 50.2412C9.89892 50.2412 9.70849 50.1729 9.55875 50.0361C9.40901 49.8962 9.33414 49.7155 9.33414 49.4941ZM12.3224 46.6914L12.7326 43.0781H16.717V44.2549H13.8898L13.714 45.7832C14.0493 45.6042 14.4058 45.5146 14.7834 45.5146C15.4604 45.5146 15.991 45.7246 16.3752 46.1445C16.7593 46.5645 16.9513 47.152 16.9513 47.9072C16.9513 48.3662 16.8537 48.778 16.6584 49.1426C16.4663 49.5039 16.1896 49.7855 15.8283 49.9873C15.467 50.1859 15.0405 50.2852 14.549 50.2852C14.1193 50.2852 13.7205 50.1989 13.3527 50.0264C12.9849 49.8506 12.6935 49.6048 12.4787 49.2891C12.2671 48.9733 12.1548 48.6136 12.1418 48.21H13.5382C13.5675 48.5062 13.6701 48.7373 13.8459 48.9033C14.0249 49.0661 14.2576 49.1475 14.5441 49.1475C14.8631 49.1475 15.1089 49.0335 15.2814 48.8057C15.4539 48.5745 15.5402 48.249 15.5402 47.8291C15.5402 47.4255 15.4409 47.1162 15.2423 46.9014C15.0438 46.6865 14.7622 46.5791 14.3976 46.5791C14.0623 46.5791 13.7905 46.667 13.5822 46.8428L13.4455 46.9697L12.3224 46.6914Z" fill="#0199EE"/>
<path d="M16.2873 90.9399H17.0929V92.0776H16.2873V93.6157H14.8761V92.0776H11.9611L11.8976 91.1889L14.8615 86.5063H16.2873V90.9399ZM13.3039 90.9399H14.8761V88.4301L14.7834 88.5912L13.3039 90.9399Z" fill="#0199EE"/>
<path d="M4.89567 131.623H5.64762C6.00569 131.623 6.27099 131.533 6.44352 131.354C6.61605 131.175 6.70231 130.938 6.70231 130.641C6.70231 130.355 6.61605 130.132 6.44352 129.972C6.27425 129.813 6.03987 129.733 5.74039 129.733C5.47021 129.733 5.24398 129.808 5.06168 129.958C4.87939 130.104 4.78825 130.296 4.78825 130.534H3.37711C3.37711 130.163 3.4764 129.831 3.67496 129.538C3.87679 129.242 4.15674 129.01 4.51481 128.844C4.87614 128.678 5.27327 128.595 5.70621 128.595C6.45817 128.595 7.04736 128.776 7.47379 129.137C7.90023 129.495 8.11344 129.99 8.11344 130.622C8.11344 130.947 8.01416 131.247 7.81559 131.52C7.61702 131.794 7.35661 132.004 7.03434 132.15C7.43473 132.293 7.73258 132.508 7.92789 132.795C8.12646 133.081 8.22575 133.42 8.22575 133.81C8.22575 134.442 7.99463 134.948 7.53239 135.329C7.0734 135.71 6.46468 135.9 5.70621 135.9C4.99658 135.9 4.41552 135.713 3.96305 135.339C3.51383 134.964 3.28922 134.469 3.28922 133.854H4.70036C4.70036 134.121 4.79964 134.339 4.99821 134.508C5.20003 134.678 5.44743 134.762 5.74039 134.762C6.07568 134.762 6.33773 134.674 6.52653 134.499C6.71858 134.32 6.81461 134.084 6.81461 133.791C6.81461 133.081 6.42399 132.726 5.64274 132.726H4.89567V131.623ZM9.33414 135.109C9.33414 134.884 9.40901 134.702 9.55875 134.562C9.71175 134.422 9.90218 134.352 10.13 134.352C10.3612 134.352 10.5516 134.422 10.7013 134.562C10.8543 134.702 10.9308 134.884 10.9308 135.109C10.9308 135.33 10.856 135.511 10.7062 135.651C10.5565 135.788 10.3644 135.856 10.13 135.856C9.89892 135.856 9.70849 135.788 9.55875 135.651C9.40901 135.511 9.33414 135.33 9.33414 135.109ZM12.3224 132.306L12.7326 128.693H16.717V129.87H13.8898L13.714 131.398C14.0493 131.219 14.4058 131.13 14.7834 131.13C15.4604 131.13 15.991 131.34 16.3752 131.759C16.7593 132.179 16.9513 132.767 16.9513 133.522C16.9513 133.981 16.8537 134.393 16.6584 134.758C16.4663 135.119 16.1896 135.4 15.8283 135.602C15.467 135.801 15.0405 135.9 14.549 135.9C14.1193 135.9 13.7205 135.814 13.3527 135.641C12.9849 135.466 12.6935 135.22 12.4787 134.904C12.2671 134.588 12.1548 134.229 12.1418 133.825H13.5382C13.5675 134.121 13.6701 134.352 13.8459 134.518C14.0249 134.681 14.2576 134.762 14.5441 134.762C14.8631 134.762 15.1089 134.648 15.2814 134.421C15.4539 134.189 15.5402 133.864 15.5402 133.444C15.5402 133.04 15.4409 132.731 15.2423 132.516C15.0438 132.301 14.7622 132.194 14.3976 132.194C14.0623 132.194 13.7905 132.282 13.5822 132.458L13.4455 132.585L12.3224 132.306Z" fill="#0199EE"/>
<path d="M13.548 175.051H14.3C14.658 175.051 14.9233 174.962 15.0959 174.783C15.2684 174.604 15.3547 174.366 15.3547 174.07C15.3547 173.783 15.2684 173.56 15.0959 173.401C14.9266 173.241 14.6922 173.162 14.3927 173.162C14.1226 173.162 13.8963 173.236 13.714 173.386C13.5317 173.533 13.4406 173.725 13.4406 173.962H12.0295C12.0295 173.591 12.1287 173.259 12.3273 172.966C12.5291 172.67 12.8091 172.439 13.1672 172.273C13.5285 172.107 13.9256 172.024 14.3586 172.024C15.1105 172.024 15.6997 172.205 16.1261 172.566C16.5526 172.924 16.7658 173.419 16.7658 174.05C16.7658 174.376 16.6665 174.675 16.4679 174.949C16.2694 175.222 16.0089 175.432 15.6867 175.579C16.0871 175.722 16.3849 175.937 16.5802 176.223C16.7788 176.51 16.8781 176.848 16.8781 177.239C16.8781 177.87 16.647 178.376 16.1847 178.757C15.7257 179.138 15.117 179.329 14.3586 179.329C13.6489 179.329 13.0679 179.141 12.6154 178.767C12.1662 178.393 11.9416 177.898 11.9416 177.283H13.3527C13.3527 177.55 13.452 177.768 13.6506 177.937C13.8524 178.106 14.0998 178.191 14.3927 178.191C14.728 178.191 14.9901 178.103 15.1789 177.927C15.3709 177.748 15.467 177.512 15.467 177.219C15.467 176.51 15.0763 176.155 14.2951 176.155H13.548V175.051Z" fill="#0199EE"/>
<path d="M8.33317 221.418H3.46012V220.451L5.75993 218C6.07568 217.655 6.30843 217.354 6.45817 217.097C6.61116 216.84 6.68766 216.596 6.68766 216.365C6.68766 216.049 6.60791 215.801 6.4484 215.622C6.2889 215.44 6.06103 215.349 5.76481 215.349C5.4458 215.349 5.19352 215.46 5.00797 215.681C4.82568 215.899 4.73454 216.187 4.73454 216.545H3.31852C3.31852 216.112 3.42106 215.717 3.62614 215.359C3.83447 215.001 4.12744 214.721 4.50504 214.519C4.88265 214.314 5.31071 214.211 5.78922 214.211C6.52164 214.211 7.08968 214.387 7.49332 214.739C7.90023 215.09 8.10368 215.587 8.10368 216.228C8.10368 216.579 8.01253 216.937 7.83024 217.302C7.64795 217.667 7.33545 218.091 6.89274 218.576L5.27653 220.281H8.33317V221.418ZM9.33414 220.725C9.33414 220.5 9.40901 220.318 9.55875 220.178C9.71175 220.038 9.90218 219.968 10.13 219.968C10.3612 219.968 10.5516 220.038 10.7013 220.178C10.8543 220.318 10.9308 220.5 10.9308 220.725C10.9308 220.946 10.856 221.127 10.7062 221.267C10.5565 221.404 10.3644 221.472 10.13 221.472C9.89892 221.472 9.70849 221.404 9.55875 221.267C9.40901 221.127 9.33414 220.946 9.33414 220.725ZM12.3224 217.922L12.7326 214.309H16.717V215.486H13.8898L13.714 217.014C14.0493 216.835 14.4058 216.745 14.7834 216.745C15.4604 216.745 15.991 216.955 16.3752 217.375C16.7593 217.795 16.9513 218.383 16.9513 219.138C16.9513 219.597 16.8537 220.009 16.6584 220.373C16.4663 220.735 16.1896 221.016 15.8283 221.218C15.467 221.417 15.0405 221.516 14.549 221.516C14.1193 221.516 13.7205 221.43 13.3527 221.257C12.9849 221.081 12.6935 220.836 12.4787 220.52C12.2671 220.204 12.1548 219.844 12.1418 219.441H13.5382C13.5675 219.737 13.6701 219.968 13.8459 220.134C14.0249 220.297 14.2576 220.378 14.5441 220.378C14.8631 220.378 15.1089 220.264 15.2814 220.036C15.4539 219.805 15.5402 219.48 15.5402 219.06C15.5402 218.656 15.4409 218.347 15.2423 218.132C15.0438 217.917 14.7622 217.81 14.3976 217.81C14.0623 217.81 13.7905 217.898 13.5822 218.073L13.4455 218.2L12.3224 217.922Z" fill="#0199EE"/>
<path d="M16.9855 263.606H12.1125V262.639L14.4123 260.188C14.728 259.843 14.9608 259.542 15.1105 259.284C15.2635 259.027 15.34 258.783 15.34 258.552C15.34 258.236 15.2603 257.989 15.1007 257.81C14.9412 257.628 14.7134 257.536 14.4172 257.536C14.0981 257.536 13.8459 257.647 13.6603 257.868C13.478 258.087 13.3869 258.375 13.3869 258.733H11.9709C11.9709 258.3 12.0734 257.904 12.2785 257.546C12.4868 257.188 12.7798 256.908 13.1574 256.706C13.535 256.501 13.9631 256.399 14.4416 256.399C15.174 256.399 15.742 256.574 16.1457 256.926C16.5526 257.278 16.756 257.774 16.756 258.415C16.756 258.767 16.6649 259.125 16.4826 259.49C16.3003 259.854 15.9878 260.279 15.5451 260.764L13.9289 262.468H16.9855V263.606Z" fill="#0199EE"/>
<path d="M6.88786 307.033H5.47672V301.594L3.79215 302.116V300.969L6.73649 299.914H6.88786V307.033ZM9.33414 306.34C9.33414 306.115 9.40901 305.933 9.55875 305.793C9.71175 305.653 9.90218 305.583 10.13 305.583C10.3612 305.583 10.5516 305.653 10.7013 305.793C10.8543 305.933 10.9308 306.115 10.9308 306.34C10.9308 306.561 10.856 306.742 10.7062 306.882C10.5565 307.019 10.3644 307.087 10.13 307.087C9.89892 307.087 9.70849 307.019 9.55875 306.882C9.40901 306.742 9.33414 306.561 9.33414 306.34ZM12.3224 303.537L12.7326 299.924H16.717V301.101H13.8898L13.714 302.629C14.0493 302.45 14.4058 302.361 14.7834 302.361C15.4604 302.361 15.991 302.571 16.3752 302.99C16.7593 303.41 16.9513 303.998 16.9513 304.753C16.9513 305.212 16.8537 305.624 16.6584 305.989C16.4663 306.35 16.1896 306.631 15.8283 306.833C15.467 307.032 15.0405 307.131 14.549 307.131C14.1193 307.131 13.7205 307.045 13.3527 306.872C12.9849 306.697 12.6935 306.451 12.4787 306.135C12.2671 305.819 12.1548 305.46 12.1418 305.056H13.5382C13.5675 305.352 13.6701 305.583 13.8459 305.749C14.0249 305.912 14.2576 305.993 14.5441 305.993C14.8631 305.993 15.1089 305.879 15.2814 305.652C15.4539 305.42 15.5402 305.095 15.5402 304.675C15.5402 304.271 15.4409 303.962 15.2423 303.747C15.0438 303.532 14.7622 303.425 14.3976 303.425C14.0623 303.425 13.7905 303.513 13.5822 303.689L13.4455 303.816L12.3224 303.537Z" fill="#0199EE"/>
<path d="M15.5402 349.221H14.1291V343.782L12.4445 344.304V343.157L15.3888 342.102H15.5402V349.221Z" fill="#0199EE"/>
<path d="M28.9907 347.425V6.20404" stroke="#0199EE"/>
<path d="M28.9907 349.244H607.205" stroke="#0199EE"/>
<path d="M28.9907 347.425C28.9907 347.425 100.957 261.81 174.165 261.81C246.131 261.81 246.131 177.435 318.098 177.435C390.065 177.435 390.065 91.8195 463.272 91.8195C535.239 91.8195 607.205 6.20404 607.205 6.20404" stroke="url(#paint0_linear_250_868)" stroke-width="2"/>
<path d="M26.5143 349.881C25.6812 349.047 25.2131 347.918 25.2131 346.739C25.2131 345.561 25.6812 344.431 26.5143 343.598C27.3475 342.765 28.4775 342.297 29.6558 342.297C30.834 342.297 31.964 342.765 32.7971 343.598C33.6303 344.431 34.0984 345.561 34.0984 346.739C34.0984 347.917 33.6303 349.047 32.7971 349.881C31.964 350.714 30.834 351.182 29.6558 351.182C28.4775 351.182 27.3475 350.714 26.5143 349.881Z" fill="white" stroke="url(#paint1_linear_250_868)"/>
<path d="M170.468 264.929C169.635 264.096 169.167 262.966 169.167 261.788C169.167 260.61 169.635 259.48 170.468 258.647C171.301 257.813 172.431 257.345 173.61 257.345C174.788 257.345 175.918 257.813 176.751 258.647C177.584 259.48 178.052 260.61 178.052 261.788C178.052 262.966 177.584 264.096 176.751 264.929C175.918 265.762 174.788 266.231 173.61 266.231C172.431 266.231 171.301 265.762 170.468 264.929Z" fill="white" stroke="url(#paint2_linear_250_868)"/>
<path d="M314.422 179.978C313.589 179.145 313.121 178.015 313.121 176.836C313.121 175.658 313.589 174.528 314.422 173.695C315.255 172.862 316.385 172.394 317.563 172.394C318.742 172.394 319.872 172.862 320.705 173.695C321.538 174.528 322.006 175.658 322.006 176.836C322.006 178.015 321.538 179.145 320.705 179.978C319.872 180.811 318.742 181.279 317.563 181.279C316.385 181.279 315.255 180.811 314.422 179.978Z" fill="white" stroke="url(#paint3_linear_250_868)"/>
<path d="M458.376 95.0263C457.543 94.1932 457.074 93.0633 457.074 91.885C457.074 90.7068 457.543 89.5768 458.376 88.7437C459.209 87.9105 460.339 87.4424 461.517 87.4424C462.695 87.4424 463.825 87.9105 464.658 88.7437L465.012 88.3901L464.658 88.7437C465.492 89.5768 465.96 90.7068 465.96 91.885C465.96 93.0633 465.492 94.1932 464.658 95.0263C463.825 95.8595 462.695 96.3276 461.517 96.3276C460.339 96.3276 459.209 95.8595 458.376 95.0263Z" fill="white" stroke="url(#paint4_linear_250_868)"/>
<path d="M602.33 10.0754C601.496 9.24225 601.028 8.11232 601.028 6.93408C601.028 5.75583 601.496 4.6259 602.33 3.79274C603.163 2.95957 604.293 2.49146 605.471 2.49146C606.649 2.49146 607.779 2.95957 608.612 3.79274L608.966 3.43919L608.612 3.79274C609.446 4.6259 609.914 5.75583 609.914 6.93408C609.914 8.11232 609.446 9.24225 608.612 10.0754C607.779 10.9086 606.649 11.3767 605.471 11.3767C604.293 11.3767 603.163 10.9086 602.33 10.0754Z" fill="white" stroke="url(#paint5_linear_250_868)"/>
<defs>
<linearGradient id="paint0_linear_250_868" x1="29.1097" y1="5.45801" x2="607.666" y2="353.866" gradientUnits="userSpaceOnUse">
<stop stop-color="#0199EE"/>
<stop offset="1" stop-color="#01E5BB"/>
</linearGradient>
<linearGradient id="paint1_linear_250_868" x1="29.6558" y1="341.797" x2="29.6558" y2="351.682" gradientUnits="userSpaceOnUse">
<stop stop-color="#0199EE"/>
<stop offset="1" stop-color="#01E5BB"/>
</linearGradient>
<linearGradient id="paint2_linear_250_868" x1="173.61" y1="256.845" x2="173.61" y2="266.731" gradientUnits="userSpaceOnUse">
<stop stop-color="#0199EE"/>
<stop offset="1" stop-color="#01E5BB"/>
</linearGradient>
<linearGradient id="paint3_linear_250_868" x1="317.563" y1="171.894" x2="317.563" y2="181.779" gradientUnits="userSpaceOnUse">
<stop stop-color="#0199EE"/>
<stop offset="1" stop-color="#01E5BB"/>
</linearGradient>
<linearGradient id="paint4_linear_250_868" x1="461.517" y1="86.9424" x2="461.517" y2="96.8276" gradientUnits="userSpaceOnUse">
<stop stop-color="#0199EE"/>
<stop offset="1" stop-color="#01E5BB"/>
</linearGradient>
<linearGradient id="paint5_linear_250_868" x1="605.471" y1="1.99146" x2="605.471" y2="11.8767" gradientUnits="userSpaceOnUse">
<stop stop-color="#0199EE"/>
<stop offset="1" stop-color="#01E5BB"/>
</linearGradient>
</defs>
</svg>
