<svg width="30" height="30" viewBox="0 0 30 30" fill="none" xmlns="http://www.w3.org/2000/svg">
<g clip-path="url(#clip0_19_762)">
<path d="M15 8.75C11.55 8.75 8.75 11.55 8.75 15C8.75 18.45 11.55 21.25 15 21.25C18.45 21.25 21.25 18.45 21.25 15C21.25 11.55 18.45 8.75 15 8.75ZM2.5 16.25H5C5.6875 16.25 6.25 15.6875 6.25 15C6.25 14.3125 5.6875 13.75 5 13.75H2.5C1.8125 13.75 1.25 14.3125 1.25 15C1.25 15.6875 1.8125 16.25 2.5 16.25ZM25 16.25H27.5C28.1875 16.25 28.75 15.6875 28.75 15C28.75 14.3125 28.1875 13.75 27.5 13.75H25C24.3125 13.75 23.75 14.3125 23.75 15C23.75 15.6875 24.3125 16.25 25 16.25ZM13.75 2.5V5C13.75 5.6875 14.3125 6.25 15 6.25C15.6875 6.25 16.25 5.6875 16.25 5V2.5C16.25 1.8125 15.6875 1.25 15 1.25C14.3125 1.25 13.75 1.8125 13.75 2.5ZM13.75 25V27.5C13.75 28.1875 14.3125 28.75 15 28.75C15.6875 28.75 16.25 28.1875 16.25 27.5V25C16.25 24.3125 15.6875 23.75 15 23.75C14.3125 23.75 13.75 24.3125 13.75 25ZM7.4875 5.725C7 5.2375 6.2 5.2375 5.725 5.725C5.2375 6.2125 5.2375 7.0125 5.725 7.4875L7.05 8.8125C7.5375 9.3 8.3375 9.3 8.8125 8.8125C9.2875 8.325 9.3 7.525 8.8125 7.05L7.4875 5.725ZM22.95 21.1875C22.4625 20.7 21.6625 20.7 21.1875 21.1875C20.7 21.675 20.7 22.475 21.1875 22.95L22.5125 24.275C23 24.7625 23.8 24.7625 24.275 24.275C24.7625 23.7875 24.7625 22.9875 24.275 22.5125L22.95 21.1875ZM24.275 7.4875C24.7625 7 24.7625 6.2 24.275 5.725C23.7875 5.2375 22.9875 5.2375 22.5125 5.725L21.1875 7.05C20.7 7.5375 20.7 8.3375 21.1875 8.8125C21.675 9.2875 22.475 9.3 22.95 8.8125L24.275 7.4875ZM8.8125 22.95C9.3 22.4625 9.3 21.6625 8.8125 21.1875C8.325 20.7 7.525 20.7 7.05 21.1875L5.725 22.5125C5.2375 23 5.2375 23.8 5.725 24.275C6.2125 24.75 7.0125 24.7625 7.4875 24.275L8.8125 22.95Z" fill="#0098EE"/>
</g>
<defs>
<clipPath id="clip0_19_762">
<rect width="30" height="30" fill="white"/>
</clipPath>
</defs>
</svg>
