<svg width="178" height="115" viewBox="0 0 178 115" fill="none" xmlns="http://www.w3.org/2000/svg">
<path d="M169.776 1.12137L168.82 1.99072L168.385 1.64297C167.95 1.29523 167.933 1.29523 167.759 1.6082C167.307 2.44277 167.011 5.03343 167.133 6.98077C167.22 8.58037 167.203 9.01504 166.959 9.44971C166.785 9.81484 166.716 10.1974 166.803 10.5799C166.959 11.4318 166.751 11.9013 166.107 12.1621C165.464 12.4403 165.203 12.7011 165.116 13.1879C165.029 13.6052 163.43 14.3181 158.892 15.9698C157.136 16.6131 155.501 17.2565 155.275 17.4129C154.719 17.7781 154.041 18.9604 153.658 20.2644C153.467 20.8556 153.084 21.638 152.789 22.0031C152.511 22.3682 152.267 22.6986 152.267 22.7507C152.267 22.8029 152.58 22.9072 152.963 22.9594C153.71 23.0811 153.85 23.4114 153.45 24.0721C153.276 24.3503 153.293 24.472 153.641 24.8198L154.023 25.2545L153.45 25.7934C153.137 26.1064 152.146 26.715 151.276 27.1322C150.007 27.7582 149.451 27.932 148.651 27.9668C147.903 28.0016 147.364 28.1581 146.564 28.5928C145.921 28.9231 145.539 29.2361 145.608 29.3578C145.66 29.4621 145.938 29.8446 146.217 30.1923C146.582 30.6618 146.686 30.9574 146.617 31.2182C146.425 31.7919 143.07 35.1824 142.009 35.8605C141.487 36.2082 140.514 36.9906 139.836 37.634C138.619 38.7989 136.602 40.1203 135.698 40.3463C135.385 40.4159 135.106 40.3637 134.915 40.2072C134.759 40.0508 134.307 39.8943 133.941 39.8421C133.559 39.7726 133.142 39.6161 133.003 39.477C132.777 39.2509 132.777 39.164 133.037 38.7641C133.229 38.4685 133.402 37.7209 133.489 36.7994C133.663 34.939 133.75 34.713 134.341 34.5565C135.298 34.3304 135.28 33.6871 134.272 31.6355C132.933 28.9231 132.603 28.7666 131.455 30.3488C130.516 31.6702 129.995 31.8441 129.751 30.9052C129.682 30.5749 129.751 30.2967 130.029 29.9315C130.464 29.3404 130.881 27.9147 130.881 27.0105C130.881 26.6454 130.742 26.1934 130.534 25.9325C130.342 25.6891 130.186 25.2718 130.186 24.9937C130.186 24.5068 130.134 24.472 128.586 24.0026C127.7 23.7418 126.743 23.4462 126.465 23.3767C125.891 23.1854 125.422 23.3767 125.126 23.933C124.97 24.2286 124.987 24.3329 125.231 24.472C125.526 24.6285 125.526 24.6633 125.178 24.9241C124.883 25.1327 124.779 25.4283 124.744 26.1934C124.709 26.7497 124.622 27.254 124.552 27.3235C124.379 27.4974 123.874 27.1496 123.648 26.715C123.475 26.3672 123.422 26.3846 122.796 27.2192L122.118 28.1059V30.5053C122.101 32.6787 122.136 32.9569 122.466 33.4089C123.509 34.8173 123.77 36.2778 123.335 38.3294C122.936 40.1898 122.275 41.4243 121.423 41.859C120.814 42.172 120.71 42.1893 120.293 41.9633C119.476 41.4939 118.85 40.2246 118.71 38.712C118.641 37.9817 118.415 36.7994 118.189 36.1039C117.859 35.0259 117.824 34.713 117.98 34.1044C118.085 33.7045 118.206 32.6265 118.258 31.7224C118.311 30.5401 118.467 29.7229 118.78 28.8362C119.023 28.1581 119.232 27.4974 119.232 27.3757C119.232 26.9758 118.728 27.5495 118.171 28.6101C117.598 29.6707 117.041 30.2967 116.85 30.088C116.572 29.8272 117.337 27.0627 118.137 25.4631C118.589 24.559 118.971 23.7766 119.006 23.7418C119.023 23.707 119.163 23.7766 119.302 23.8809C119.476 24.02 119.58 24.0374 119.667 23.8983C119.823 23.6549 120.449 23.6722 120.449 23.933C120.449 24.0548 120.623 23.9504 120.849 23.707C121.058 23.4636 121.736 22.8724 122.344 22.4204C123.561 21.5163 123.492 21.5336 125.457 22.09C125.787 22.177 125.839 22.1422 125.839 21.7249C125.839 21.325 125.891 21.2902 126.239 21.3945C127.334 21.7597 127.7 21.4119 126.813 20.8034C126.291 20.4383 126.169 20.4209 125.457 20.6121C124.796 20.8034 124.622 20.786 124.222 20.5078C123.892 20.2992 123.753 20.0558 123.753 19.7254V19.2386L122.344 19.7776C121.492 20.1079 120.623 20.5947 120.171 20.9947C119.458 21.6206 119.336 21.6727 118.658 21.5684C118.258 21.5163 117.285 21.1337 116.485 20.7338C115.268 20.1079 114.99 20.0384 114.711 20.2122C114.172 20.5426 114.016 20.4557 114.016 19.8645C114.016 19.4472 114.19 19.1516 114.833 18.5257C115.303 18.091 115.563 17.7259 115.442 17.6737C114.885 17.4999 113.86 18.1258 112.26 19.6559C111.321 20.56 110.469 21.2902 110.347 21.2902C110.226 21.2902 109.861 21.5336 109.548 21.8466C109.043 22.3334 108.835 22.4204 107.844 22.4725L106.713 22.5421V22.0031C106.713 21.3598 106.644 21.3598 105.462 21.8118C104.592 22.1422 103.236 22.2813 103.236 22.0553C103.236 22.0031 103.636 21.4989 104.14 20.9599C104.627 20.4209 105.288 19.5863 105.601 19.1169C106.366 17.9345 106.94 17.4303 108.365 16.7175L109.582 16.1089L108.765 15.9872C108.296 15.9177 107.67 15.9177 107.339 15.9698C107.009 16.0394 106.557 15.9872 106.296 15.8829C105.931 15.709 105.722 15.7264 105.201 15.9698C104.558 16.248 104.523 16.248 103.323 15.7438C102.558 15.4134 102.036 15.2917 101.932 15.396C101.654 15.6742 101.515 15.5699 101.237 14.9266C101.045 14.4398 100.906 14.3181 100.68 14.405C100.506 14.4745 99.8282 14.5963 99.1502 14.6832C98.1243 14.8049 97.8809 14.7875 97.6201 14.5441C97.4115 14.3702 96.8899 14.2311 96.177 14.1964L95.0468 14.1268L94.5426 13.2227C93.6733 11.6926 93.7428 11.7448 93.4472 12.475C93.2734 12.8749 92.9952 13.1879 92.717 13.2922C91.4304 13.7791 73.2088 14.0399 67.1582 13.6574C49.806 12.5794 32.958 9.43233 17.3098 4.37273C15.9884 3.93805 14.9104 3.62508 14.9104 3.67725C14.9104 3.71202 15.1016 4.04237 15.345 4.39011C15.8493 5.13775 15.8667 5.25946 15.5015 5.65936C15.2407 5.95494 15.2407 6.04187 15.5015 6.78951C15.884 7.90228 15.8493 8.23263 15.345 8.70208C15.0495 8.98027 14.9104 9.29324 14.9104 9.69313C14.9104 10.0061 14.8061 10.3886 14.7017 10.5451C14.4409 10.8581 13.5542 11.4492 13.1369 11.6057C12.737 11.7448 12.1285 11.1189 12.1285 10.5799C12.1285 10.2321 12.2328 10.18 12.8413 10.1278C13.815 10.0583 14.128 9.58881 13.5368 9.10197L13.1195 8.75423L13.5194 8.33695C13.9193 7.91966 13.9193 7.90228 13.589 7.53715C13.4151 7.34589 12.5457 6.84167 11.6764 6.42439C10.8071 6.0071 9.86816 5.4681 9.57258 5.22469L9.03358 4.77263L8.84233 5.25946C8.68584 5.62459 8.68584 6.12881 8.80755 7.22418C8.91187 8.02399 8.99881 9.11936 8.99881 9.65836C8.99881 10.3017 9.08574 10.6842 9.22484 10.7364C9.36394 10.7885 9.32916 10.8928 9.08574 11.0841C8.738 11.3449 8.738 11.3623 9.06836 11.9013C9.38132 12.4577 9.38132 12.4577 9.0162 12.9619C8.54675 13.5878 8.56414 13.7095 9.08574 14.0573C9.69429 14.4572 9.62474 14.6484 8.89449 14.718C8.25117 14.7701 8.25117 14.7875 7.86866 16.0741C7.66001 16.787 7.26011 17.8476 6.96454 18.4214C6.66896 18.9951 6.18212 20.1079 5.88654 20.8903C5.57358 21.6554 4.94765 22.942 4.46081 23.7418C2.60041 26.8367 2.44393 27.3235 2.04403 31.0095C1.97448 31.7224 1.95709 32.5917 1.99187 32.9569C2.14835 34.0175 1.55719 35.8083 0.774781 36.6951C-0.164115 37.7731 -0.233662 38.3816 0.479203 39.929L1.05297 41.1809L0.740007 43.1109C0.374881 45.3364 0.444429 45.8928 1.20945 47.3185C1.69629 48.2226 1.73106 48.3965 1.55719 49.005C1.33116 49.857 1.53981 50.4308 2.13096 50.7089C2.4787 50.8654 2.6178 50.848 2.89599 50.6046C3.19157 50.3264 3.22634 50.3264 3.33066 50.7089C3.38282 50.935 3.43498 51.3696 3.43498 51.7C3.43498 52.1347 3.36544 52.2564 3.19157 52.1868C3.00031 52.0999 2.89599 52.2738 2.80905 52.8475C2.63518 54.0994 2.82644 54.7079 3.69579 55.5251C4.13046 55.925 4.4782 56.3075 4.4782 56.3771C4.4782 56.4466 4.28695 56.8118 4.04353 57.1769L3.62624 57.855L4.11308 58.8287C4.39127 59.3676 4.66946 60.1327 4.73901 60.5326C4.79117 60.9325 5.06936 61.5758 5.34755 61.9409C5.62574 62.3234 6.04303 63.1406 6.30383 63.7839C6.70373 64.7924 6.73851 65.0706 6.63418 66.1312L6.52986 67.3483L7.10363 67.696C7.43398 67.9046 8.14685 68.1828 8.70323 68.3393C9.57258 68.6001 9.83338 68.774 10.7723 69.8346C11.3982 70.5475 12.1806 71.2082 12.6675 71.4516C13.2238 71.7472 13.5194 72.008 13.5542 72.2688C13.589 72.4774 13.8845 72.8251 14.2149 73.0512C15.432 73.8162 15.7102 74.1292 16.2839 75.2767C16.6491 76.0417 16.8577 76.7546 16.8751 77.2936C16.8925 77.7804 16.9968 78.1803 17.1359 78.2151C17.2402 78.2673 17.3445 78.4933 17.3445 78.7367C17.3445 79.2409 17.049 79.154 21.9521 79.9712C24.5427 80.4059 25.6381 80.6493 25.7424 80.8405C25.9337 81.1883 27.0986 81.9359 31.1498 84.2658C32.9754 85.3264 34.9749 86.5608 35.6008 87.0129C36.2268 87.465 37.044 88.004 37.4265 88.1952C38.3306 88.6299 40.8169 89.2037 42.9034 89.4297C45.9809 89.76 49.3365 90.0208 49.4409 89.9339C49.493 89.8817 49.5452 89.4123 49.5626 88.9255L49.5973 88.004L52.2054 88.1257C53.6485 88.1778 55.0916 88.2995 55.4394 88.3865C56.2044 88.5603 58.03 90.299 58.2908 91.0814C58.4125 91.4292 58.795 91.8291 59.4557 92.2638C59.9947 92.6289 60.6381 93.1853 60.8989 93.5156C61.4552 94.2633 62.2029 96.0715 62.2029 96.7148C62.2029 97.2886 62.8984 98.3144 63.8199 99.1316C64.6892 99.8966 66.7061 101.062 67.3842 101.201C67.9058 101.305 68.0275 101.235 69.1229 100.088C69.8358 99.3229 70.6182 98.7143 71.105 98.4883C71.8526 98.1579 72.0439 98.1405 73.1045 98.3318C74.2173 98.5057 74.339 98.5926 75.2605 99.5315C75.7821 100.088 76.9992 101.74 77.9381 103.2C78.9465 104.765 80.0245 106.243 80.5635 106.747C81.5719 107.703 81.8675 108.312 82.7021 110.955C83.328 112.989 83.4671 113.128 85.1537 113.493C85.7796 113.632 86.5272 113.876 86.8054 114.032C87.101 114.189 87.6052 114.31 87.953 114.31C88.3181 114.31 88.7701 114.45 89.031 114.658C89.483 115.023 90.1263 115.11 90.5088 114.849C90.7001 114.728 90.7001 114.693 90.4741 114.606C90.3176 114.536 90.1959 114.293 90.1959 114.032C90.1959 113.771 89.9872 112.954 89.7264 112.207C89.3091 110.937 89.2918 110.781 89.5004 110.12C89.7264 109.442 89.7264 109.39 89.3265 109.094L88.9092 108.781L89.4656 108.26C90.0916 107.669 90.1263 107.582 89.7612 107.06C89.5178 106.712 89.5178 106.66 89.8481 106.434C90.0394 106.312 90.3176 105.913 90.4567 105.547C90.6132 105.2 90.8044 104.956 90.9087 105.026C91.1522 105.182 91.7433 104.608 92.0389 103.913C92.2128 103.461 92.3519 103.357 92.5953 103.426C93.169 103.617 93.4994 103.374 93.3951 102.87L93.3081 102.4L94.5774 102.383C95.3772 102.383 96.0379 102.279 96.3856 102.087C97.6723 101.409 99.2371 99.149 98.872 98.4709C98.6633 98.0536 98.7676 97.8624 99.411 97.532C99.8978 97.2712 99.9152 97.2886 100.106 97.8797C100.211 98.2101 100.385 98.5231 100.472 98.5752C100.559 98.6448 101.202 98.4014 101.88 98.0536C102.575 97.7233 103.706 97.3234 104.366 97.1843C105.514 96.9582 105.67 96.9582 106.713 97.2712C107.339 97.4625 108.157 97.6189 108.539 97.6189C109.13 97.6189 109.304 97.532 109.721 97.0104C110.278 96.3149 110.556 96.2801 111.669 96.7496C112.121 96.9408 112.521 97.0973 112.555 97.0973C112.608 97.0973 112.434 96.7148 112.156 96.2454C111.617 95.2717 111.669 95.0978 112.347 95.3586C112.938 95.5847 113.321 96.454 113.321 97.6189C113.321 98.2623 113.407 98.5752 113.668 98.836C114.103 99.2707 114.312 99.2707 114.972 98.836C115.355 98.5926 115.65 98.5231 116.207 98.61C116.815 98.6969 116.972 98.6448 117.215 98.297C117.615 97.7233 117.563 97.4972 116.954 96.9408C116.554 96.5583 116.45 96.3497 116.537 96.0715C116.711 95.5325 117.111 95.6194 117.824 96.3845C118.171 96.7496 118.85 97.2712 119.354 97.5146C119.858 97.758 120.327 98.1058 120.432 98.2623C120.588 98.5578 120.623 98.5578 120.953 98.2449C121.666 97.6016 121.353 97.0452 120.067 96.6627C119.458 96.4888 119.302 96.3671 119.267 95.9846C119.197 95.3934 119.493 95.0109 120.032 95.0109C120.588 95.0109 120.571 94.7153 119.997 94.4545C119.649 94.298 119.476 94.298 119.215 94.4545C118.641 94.8196 118.189 94.7153 118.189 94.2285C118.189 93.7416 117.98 93.6721 117.667 94.0546C117.302 94.5067 116.311 94.385 115.737 93.8112C115.459 93.533 115.233 93.2374 115.233 93.1505C115.233 93.0809 115.563 92.8723 115.981 92.6984C116.728 92.4029 116.746 92.4029 117.876 92.8201L119.006 93.2548L120.015 92.5593C120.866 91.9856 121.145 91.8812 121.962 91.8812C123.022 91.8812 123.857 91.5857 124.344 91.0293C124.761 90.5598 124.865 90.5598 125.109 91.0988C125.283 91.4987 125.404 91.5335 126.361 91.5335H127.404V91.0119C127.404 90.5251 127.439 90.4903 128.099 90.4903C128.482 90.4903 129.143 90.4034 129.577 90.2816C130.238 90.1078 130.603 90.1078 131.838 90.3686C133.229 90.6468 133.385 90.7337 134.307 91.6204L135.28 92.5593L136.48 91.9508C137.401 91.4813 137.732 91.2205 137.871 90.838C138.045 90.3338 138.08 90.3164 139.21 90.3164C140.462 90.3164 140.653 90.4381 141.366 91.5683C141.54 91.8465 142.079 92.2638 142.583 92.5072C143.678 93.0636 144.548 93.7069 144.774 94.1242C144.878 94.298 145.034 95.1326 145.121 95.9846C145.486 98.9751 145.504 99.1142 145.678 98.7839C145.904 98.384 146.477 98.4187 146.617 98.836C146.669 99.0273 146.634 99.4446 146.512 99.7575C146.338 100.262 146.356 100.418 146.686 101.062C147.277 102.226 147.66 102.522 148.355 102.383C148.842 102.296 148.964 102.331 148.964 102.539C148.964 102.696 149.225 103.026 149.555 103.27C149.92 103.548 150.129 103.826 150.059 103.983C150.007 104.122 150.163 104.435 150.407 104.661C150.633 104.904 150.876 105.321 150.929 105.6C150.998 105.93 151.172 106.156 151.433 106.225C151.641 106.295 152.215 106.73 152.685 107.182C153.171 107.634 153.745 108.103 153.971 108.208C154.267 108.364 154.336 108.521 154.267 108.764C154.162 109.094 154.18 109.112 154.562 108.886C154.945 108.677 155.049 108.642 155.519 108.59C156.232 108.521 156.597 105.982 156.423 102.226C156.371 101.166 156.266 100.714 155.988 100.314C155.779 100.018 155.571 99.5489 155.501 99.2707C155.432 98.9751 154.719 97.6711 153.902 96.3497C153.102 95.0283 152.441 93.9155 152.441 93.8634C152.441 93.8286 152.598 93.7938 152.789 93.7938C153.084 93.7938 152.945 93.5504 152.024 92.3333C150.685 90.5772 149.711 88.8907 149.312 87.5693C149.051 86.7521 148.964 86.6304 148.842 86.926C148.773 87.1172 148.703 87.691 148.703 88.1778C148.703 88.682 148.668 89.0993 148.616 89.0993C148.46 89.0993 148.094 87.6041 148.094 87.0303C148.094 86.7521 148.216 86.4391 148.355 86.3174C148.668 86.0566 148.686 85.1177 148.425 84.1614C148.199 83.3095 148.529 80.7884 148.999 79.8495C149.172 79.4843 149.312 78.9627 149.312 78.6845C149.312 78.4064 149.398 78.1108 149.485 78.0586C149.59 77.9891 149.642 77.7283 149.624 77.4848C149.59 77.2067 149.659 77.0328 149.764 77.0502C149.885 77.0676 150.111 76.9285 150.268 76.7546C150.442 76.5633 150.65 76.4069 150.737 76.4069C151.068 76.4069 152.58 74.9637 152.685 74.5638C152.754 74.3378 152.876 74.1466 152.963 74.1466C153.206 74.1466 154.006 72.8947 154.006 72.5122C154.006 72.3209 154.162 72.008 154.354 71.7993C154.562 71.5907 154.997 70.843 155.362 70.1302C155.884 69.0696 156.162 68.7392 156.875 68.2872C158.196 67.47 158.7 66.931 158.7 66.392C158.7 65.8356 159.413 64.549 160.144 63.7665C160.439 63.4536 161.048 63.0711 161.517 62.9146C162.387 62.6364 162.995 62.0279 162.717 61.7497C162.613 61.6453 162.334 61.767 161.987 62.0452C161.343 62.5842 160.7 62.6016 160.7 62.0626C160.7 61.8192 160.839 61.6975 161.187 61.6627C161.569 61.6106 161.656 61.5236 161.656 61.1063C161.656 60.7064 161.552 60.5847 161.1 60.4109C160.561 60.2196 160.543 60.2022 160.909 60.0631C161.117 59.9762 161.378 59.7502 161.482 59.5589C161.691 59.1416 162.021 59.1068 162.543 59.4024C162.856 59.5937 162.943 59.5763 163.308 59.1416C163.882 58.4983 164.16 57.4029 163.899 56.8987C163.708 56.5336 163.691 56.5336 163.482 57.0552C163.256 57.5768 163.256 57.5768 162.387 57.4029C161.656 57.2464 161.448 57.2638 161.065 57.5072C160.822 57.6637 160.596 57.8028 160.543 57.8028C160.404 57.8028 160.057 56.0467 160.161 55.925C160.231 55.8729 160.509 55.9598 160.787 56.1163C161.291 56.4119 161.291 56.4119 162.074 55.8381L162.839 55.2469L162.508 54.7427C162.3 54.4124 162.213 54.082 162.265 53.7864C162.404 53.1605 161.813 52.7954 160.7 52.8128C160.213 52.8128 159.639 52.7258 159.413 52.6041C159.031 52.3955 159.013 52.3607 159.292 52.2042C159.465 52.0999 159.796 52.0651 160.022 52.1173C160.439 52.1868 160.422 52.1694 159.883 51.7L159.309 51.1958L159.709 50.9002L160.109 50.622L159.205 50.0135C158.474 49.5266 158.353 49.3875 158.579 49.2658C158.735 49.1789 159.031 49.1789 159.292 49.2832C160.005 49.544 160.022 49.1441 159.326 48.4313C158.648 47.7358 158.561 47.5445 158.944 47.5445C159.396 47.5445 159.431 47.1968 158.996 47.0055C158.683 46.8664 158.422 46.4318 158.022 45.4233C157.727 44.6757 157.483 43.8759 157.483 43.6672C157.483 43.1978 158.231 42.0502 158.7 41.8068C159.153 41.5634 159.361 41.9981 159.083 42.5545C158.77 43.2152 158.909 44.3453 159.379 44.8148C159.587 45.0582 159.744 45.3364 159.674 45.4233C159.622 45.5102 159.883 45.8754 160.265 46.2405C160.63 46.6056 160.978 47.0751 161.03 47.3011C161.117 47.6315 161.256 47.7184 161.656 47.7184C162.265 47.7184 162.317 47.9444 161.9 48.8312C161.621 49.4049 161.691 50.2047 161.987 49.8744C162.074 49.7874 162.3 48.7094 162.508 47.4924C162.978 44.6757 162.891 44.1888 161.674 43.3195C161.013 42.8327 160.804 42.5719 160.717 42.0676C160.648 41.7199 160.613 41.4069 160.648 41.3722C160.683 41.3374 161.1 41.4069 161.587 41.5113C162.56 41.7373 163.03 42.0502 163.065 42.4849C163.099 43.0935 164.612 37.2341 164.612 36.4864C164.612 36.3299 164.403 36.243 164.003 36.243H163.395V35.391C163.395 34.6608 163.517 34.3478 164.247 33.2524C165.412 31.5311 165.986 31.0269 167.916 29.9837C169.863 28.9231 170.454 28.4015 170.732 27.5148C170.958 26.7671 170.993 26.7497 171.41 27.1322C171.689 27.3757 171.758 27.3409 172.28 26.6802C172.662 26.2107 172.906 26.0369 173.027 26.1586C173.323 26.4542 173.445 26.3672 174.157 25.4631C174.853 24.5938 174.923 24.1938 174.401 24.0026C174.018 23.8461 173.914 24.02 174.157 24.3156C174.47 24.6981 174.244 25.2197 173.653 25.4631C172.94 25.7587 172.401 25.5848 172.019 24.9241C171.845 24.6285 171.428 24.2808 171.115 24.1417C170.576 23.9157 170.524 23.8287 170.524 23.1159C170.524 22.6986 170.611 22.2987 170.715 22.2291C170.854 22.1596 170.75 22.0205 170.454 21.864C169.898 21.5684 169.88 21.2033 170.35 19.2386C170.75 17.5868 171.08 16.8566 171.584 16.5436C171.775 16.4393 172.228 15.9351 172.593 15.4656C173.132 14.7527 173.271 14.405 173.34 13.5878C173.427 12.4229 173.879 11.7448 174.192 12.2838C174.505 12.8576 174.436 12.9271 176.974 10.1974C177.617 9.51926 178 8.96288 178 8.70208C178 8.11092 177.409 7.46761 176.609 7.13725C176.174 6.96338 175.774 6.65041 175.601 6.32006C175.427 6.0071 175.114 5.76368 174.818 5.69413C174.244 5.57243 173.949 5.05082 173.201 2.87745C172.645 1.22569 171.88 0.252022 171.167 0.252022C170.871 0.252022 170.402 0.5476 169.776 1.12137Z" fill="url(#paint0_linear_250_796)"/>
<path d="M167.203 32.2093C166.386 32.557 165.568 32.9743 165.377 33.1134C164.942 33.4437 164.438 34.1566 164.438 34.4522C164.438 34.8695 164.908 34.6782 166.038 33.8436C167.081 33.096 168.924 31.5312 168.768 31.5485C168.733 31.5659 168.02 31.8615 167.203 32.2093Z" fill="url(#paint1_linear_250_796)"/>
<defs>
<linearGradient id="paint0_linear_250_796" x1="89" y1="115" x2="89" y2="0.252014" gradientUnits="userSpaceOnUse">
<stop stop-color="#0199EE"/>
<stop offset="1" stop-color="#01E5BB"/>
</linearGradient>
<linearGradient id="paint1_linear_250_796" x1="166.608" y1="34.6654" x2="166.608" y2="31.5484" gradientUnits="userSpaceOnUse">
<stop stop-color="#0199EE"/>
<stop offset="1" stop-color="#01E5BB"/>
</linearGradient>
</defs>
</svg>
