<svg width="22" height="22" viewBox="0 0 22 22" fill="none" xmlns="http://www.w3.org/2000/svg">
<g clip-path="url(#clip0_19_907)">
<path d="M17.875 5.5C16.6741 5.5 15.7025 6.42583 15.6016 7.60833C13.8783 7.15 12.9983 5.95833 11 5.95833C8.99248 5.95833 8.12165 7.15 6.39831 7.60833C6.29748 6.435 5.32581 5.5 4.12498 5.5C2.85998 5.5 1.83331 6.52667 1.83331 7.79167V8.25C1.83331 13.75 5.13331 15.4092 7.80998 15.565C8.73581 16.1517 9.82665 16.5 11 16.5C12.1733 16.5 13.2641 16.1517 14.19 15.565C16.8666 15.4092 20.1666 13.75 20.1666 8.25V7.79167C20.1666 6.52667 19.14 5.5 17.875 5.5ZM3.20831 8.25V7.79167C3.20831 7.2875 3.62081 6.875 4.12498 6.875C4.62915 6.875 5.04165 7.2875 5.04165 7.79167V10.5417C5.04165 11.715 5.38998 12.8058 5.96748 13.7317C4.57415 13.0808 3.20831 11.5958 3.20831 8.25ZM18.7916 8.25C18.7916 11.5958 17.4258 13.0808 16.0325 13.7317C16.6191 12.8058 16.9583 11.715 16.9583 10.5417V7.79167C16.9583 7.2875 17.3708 6.875 17.875 6.875C18.3791 6.875 18.7916 7.2875 18.7916 7.79167V8.25ZM9.79915 9.60667C9.39581 9.845 8.91915 10.12 8.24998 10.3033V9.35C8.68998 9.19417 9.01998 9.00167 9.33165 8.81833C9.82665 8.525 10.2941 8.25 11 8.25C11.7058 8.25 12.1641 8.525 12.65 8.81833C12.9616 9.00167 13.3008 9.20333 13.75 9.35917V10.3125C13.0625 10.12 12.595 9.845 12.1825 9.5975C11.7608 9.35 11.4491 9.16667 11 9.16667C10.5508 9.16667 10.23 9.35 9.79915 9.60667Z" fill="url(#paint0_linear_19_907)"/>
</g>
<defs>
<linearGradient id="paint0_linear_19_907" x1="1.83331" y1="5.5" x2="20.1666" y2="16.5" gradientUnits="userSpaceOnUse">
<stop stop-color="#0098EE"/>
<stop offset="1" stop-color="#00EEB5"/>
</linearGradient>
<clipPath id="clip0_19_907">
<rect width="22" height="22" fill="white"/>
</clipPath>
</defs>
</svg>
