<svg width="23" height="23" viewBox="0 0 23 23" fill="none" xmlns="http://www.w3.org/2000/svg">
<path fill-rule="evenodd" clip-rule="evenodd" d="M11.5 6.35247C13.196 3.40908 17.3988 3.06556 19.5318 5.81478L19.8283 6.19689C21.6322 8.52198 21.3718 11.8377 19.2269 13.8526L12.5471 20.1275C12.4473 20.2213 12.3382 20.3239 12.2353 20.4031C12.117 20.4943 11.9515 20.5997 11.7307 20.6431C11.5783 20.673 11.4216 20.673 11.2693 20.6431C11.0485 20.5997 10.883 20.4943 10.7647 20.4031C10.6618 20.3239 10.5528 20.2214 10.453 20.1276L3.77311 13.8526C1.62823 11.8377 1.36777 8.52198 3.17172 6.19689L3.46818 5.81478C5.60119 3.06557 9.80403 3.40908 11.5 6.35247ZM15.3413 10.591C15.6331 10.322 15.6517 9.86729 15.3827 9.5754C15.1137 9.2835 14.6589 9.26496 14.367 9.53398L10.6678 12.9433L9.12262 11.4606C8.8362 11.1857 8.38121 11.1951 8.10637 11.4815C7.83153 11.7679 7.84092 12.2229 8.12734 12.4978L10.1603 14.4485C10.4343 14.7115 10.8657 14.7158 11.145 14.4584L15.3413 10.591Z" fill="url(#paint0_linear_19_828)"/>
<defs>
<linearGradient id="paint0_linear_19_828" x1="11.5" y1="3.93614" x2="11.5" y2="20.6655" gradientUnits="userSpaceOnUse">
<stop stop-color="#0098EE"/>
<stop offset="1" stop-color="#01E5BB"/>
</linearGradient>
</defs>
</svg>
